<svg width="50" height="32" viewBox="0 0 50 32" fill="none" xmlns="http://www.w3.org/2000/svg">
<path d="M0.835889 22.5299C0.835889 20.0633 1.43589 17.6633 2.63589 15.3299C3.83589 12.9299 5.33589 10.7633 7.13589 8.82993C9.00256 6.82993 11.0692 5.09659 13.3359 3.62993C15.6692 2.09659 17.9359 0.896594 20.1359 0.0299306L23.0359 4.22993C20.5692 6.0966 18.7026 7.76326 17.4359 9.22993C16.2359 10.6966 15.6359 12.1633 15.6359 13.6299C15.6359 15.9633 17.5026 18.4966 21.2359 21.2299C21.2359 22.8299 20.9359 24.2633 20.3359 25.5299C19.7359 26.7966 18.9026 27.8633 17.8359 28.7299C16.8359 29.5966 15.6692 30.2633 14.3359 30.7299C13.0692 31.1966 11.7359 31.4299 10.3359 31.4299C7.60256 31.4299 5.33589 30.6966 3.53589 29.2299C1.73589 27.7633 0.835889 25.5299 0.835889 22.5299ZM27.3359 22.5299C27.3359 20.0633 27.9359 17.6633 29.1359 15.3299C30.3359 12.9299 31.8359 10.7633 33.6359 8.82993C35.5026 6.82993 37.5692 5.09659 39.8359 3.62993C42.1692 2.09659 44.4359 0.896594 46.6359 0.0299306L49.4359 4.22993C47.0359 6.0966 45.2026 7.76326 43.9359 9.22993C42.7359 10.6966 42.1359 12.1633 42.1359 13.6299C42.1359 15.9633 44.0026 18.4966 47.7359 21.2299C47.7359 22.8299 47.4359 24.2633 46.8359 25.5299C46.2359 26.7966 45.4026 27.8633 44.3359 28.7299C43.3359 29.5966 42.1692 30.2633 40.8359 30.7299C39.5026 31.1966 38.1359 31.4299 36.7359 31.4299C34.0692 31.4299 31.8359 30.6966 30.0359 29.2299C28.2359 27.7633 27.3359 25.5299 27.3359 22.5299Z" fill="black"/>
</svg>
