<svg width="49" height="33" viewBox="0 0 49 33" fill="none" xmlns="http://www.w3.org/2000/svg">
<path d="M48.7431 9.79907C48.7431 12.3324 48.1431 14.7657 46.9431 17.0991C45.7431 19.4324 44.2098 21.5991 42.3431 23.5991C40.5431 25.5324 38.4765 27.2657 36.1431 28.7991C33.8765 30.3324 31.6431 31.4991 29.4431 32.2991L26.6431 28.0991C29.0431 26.2324 30.8431 24.5657 32.0431 23.0991C33.3098 21.6324 33.9431 20.1991 33.9431 18.7991C33.9431 16.3991 32.0765 13.8324 28.3431 11.0991C28.3431 9.49907 28.6431 8.06574 29.2431 6.79907C29.8431 5.5324 30.6431 4.46573 31.6431 3.59907C32.7098 2.7324 33.9098 2.06574 35.2431 1.59907C36.5765 1.1324 37.9431 0.899071 39.3431 0.899071C42.0098 0.899071 44.2431 1.6324 46.0431 3.09907C47.8431 4.56573 48.7431 6.79907 48.7431 9.79907ZM22.3431 9.79907C22.3431 12.3324 21.7431 14.7657 20.5431 17.0991C19.3431 19.4324 17.8098 21.5991 15.9431 23.5991C14.0764 25.5324 11.9764 27.2657 9.64312 28.7991C7.37645 30.3324 5.14312 31.4991 2.94312 32.2991L0.143115 28.0991C2.54312 26.2324 4.34312 24.5657 5.54312 23.0991C6.80978 21.6324 7.44312 20.1991 7.44312 18.7991C7.44312 16.3991 5.60978 13.8324 1.94312 11.0991C1.94312 9.49907 2.24312 8.06574 2.84312 6.79907C3.44312 5.5324 4.24312 4.46573 5.24312 3.59907C6.24312 2.7324 7.40978 2.06574 8.74312 1.59907C10.0764 1.1324 11.4431 0.899071 12.8431 0.899071C15.5764 0.899071 17.8431 1.6324 19.6431 3.09907C21.4431 4.56573 22.3431 6.79907 22.3431 9.79907Z" fill="black"/>
</svg>
