<svg width="100" height="52" viewBox="0 0 100 52" fill="none" xmlns="http://www.w3.org/2000/svg">
<path d="M93.9221 22.535C88.4545 18.752 88.7366 16.7123 88.7414 16.6916C88.7542 15.9187 89.2212 15.4996 89.5879 15.5092C90.5491 15.5395 91.2696 16.2056 91.6219 16.6852C93.5348 19.6603 94.9009 20.8044 94.9933 20.8267C94.9933 20.8267 95.5449 20.9144 95.2627 20.277C94.9997 19.6762 95.4365 19.4531 95.4365 19.4531C96.9747 20.2722 98.0173 19.297 98.5114 18.5369C99.1315 17.5744 98.411 16.0096 98.411 16.0096C98.411 16.0096 97.7256 16.8382 96.5603 16.6613C95.344 16.4781 94.8562 15.2128 94.6474 14.5706C94.6474 14.5706 98.2117 15.275 97.5024 14.2376C96.7946 13.1986 94.5837 12.1214 92.5512 11.9414C88.3397 11.5717 87.0007 14.6886 86.9943 14.7156C85.1643 19.9535 92.725 24.0902 95.8812 26.9283C99.0423 29.7679 97.8148 30.9646 97.6219 31.1989C96.758 32.2346 94.4721 32.5278 94.4721 32.5278C94.1166 32.582 88.4752 32.5342 86.8158 28.6269C84.6431 22.2067 80.8221 16.553 80.8221 16.553C80.8221 16.553 80.9751 20.6929 77.7599 22.1764C77.4188 22.3358 76.864 24.828 73.8736 24.9061C73.652 24.9125 73.9023 26.3068 70.7301 27.3059C70.0526 27.5179 69.187 27.1641 68.908 27.4716C67.9405 28.5329 67.5148 28.2843 67.1705 28.133C67.1115 28.1059 67.2582 28.0915 67.0494 30.0085C67.0414 30.0802 67.789 30.5599 68.0058 30.5296C68.5223 30.4563 69.5457 29.881 70.0861 30.3352C70.5308 30.7144 70.059 32.5995 70.4718 33.0664C71.0074 33.6799 71.618 33.7947 72.9857 33.4457C75.1695 32.888 75.8103 31.4554 75.8103 31.4554C75.3529 32.888 75.5362 32.3095 74.8284 33.3453C72.6812 35.4615 70.3778 34.2887 70.3475 35.5427C70.306 37.3179 70.9134 40.8619 70.9357 41.8642C70.9931 44.2385 69.45 44.8568 68.2385 45.0002C67.0302 45.1452 65.6243 43.9533 63.7608 44.1604C61.8559 44.3724 61.5849 45.6535 61.62 45.6185C62.4122 44.8377 63.2587 45.381 63.23 45.3842C61.9117 45.6217 61.8782 46.6558 61.8782 47.0542C61.8782 47.3028 62.3804 48.1203 62.3421 47.9083C61.9898 46.0344 64.4112 46.7323 64.3538 46.7244C62.4856 46.4965 62.8777 48.3434 62.951 48.4916C63.1359 48.8469 63.2061 48.9808 63.2061 48.9808C64.5355 48.1314 65.9829 48.4836 66.7051 48.737C68.3087 49.2995 69.7019 48.7274 70.0111 48.5936C70.7062 48.2956 74.9113 43.08 77.0537 41.8929C81.6064 39.3672 81.592 39.1249 81.3083 37.941C80.8141 36.3698 81.4167 35.7133 81.4167 35.7133C81.4741 35.8487 81.6669 36.6056 82.1882 37.6844C85.0161 42.3566 92.1352 43.5868 92.1352 43.5868C92.1352 43.5868 92.9673 45.3651 92.0587 45.3269C91.1484 45.2902 89.4189 43.8736 87.573 44.2082C85.3492 44.6114 85.3779 46.2256 85.3971 46.1826C86.1112 44.7277 86.9911 45.3986 86.964 45.4081C85.8482 45.8384 85.4752 47.1721 85.6665 47.545C85.9103 48.0199 86.0108 48.1506 86.2005 48.3003C86.2626 48.3482 85.6346 46.7531 87.3354 46.8232C87.4056 46.8264 86.4778 47.1817 86.8891 48.525C86.9305 48.6541 87.4422 49.2533 87.4422 49.2533C88.6824 48.3163 89.9736 48.4852 91.1883 48.8166C92.191 49.0907 94.7367 48.8501 94.9901 48.4693C95.1336 48.2541 98.0651 44.4377 93.8121 40.0317C92.2946 38.462 93.4965 34.5835 94.2362 34.5978C99.2734 34.6902 99.4456 32.233 99.4583 32.2123C101.937 28.168 95.1751 23.6233 93.9221 22.535ZM85.6138 29.8954C85.0719 28.2796 83.8301 24.0615 83.0873 22.9796C83.0873 22.9796 84.7786 25.2742 85.9789 29.4763C85.9789 29.4763 86.387 31.8665 91.15 33.2513C91.15 33.2529 86.6994 33.1142 85.6138 29.8954Z" fill="black"/>
<path d="M62.9183 11.884C64.6861 13.0058 67.3912 13.6958 67.3832 25.1196C67.3832 26.0295 67.2764 26.5474 67.5761 26.4773C69.6165 25.9929 70.3546 23.7301 70.7021 20.5686C70.7021 20.5686 72.5193 22.2019 70.0103 26.0534C69.7536 26.4502 75.1049 24.4344 73.2351 17.9409C73.2351 17.9409 75.5002 19.0579 74.8211 22.9031C74.8211 22.9031 77.5916 22.3884 76.7324 16.239C76.7324 16.239 78.6278 17.5712 77.5406 20.8379C77.5406 20.8379 80.5662 17.6493 78.9944 12.8337C78.9944 12.8337 79.809 12.8162 80.3844 14.3173L81.9514 14.4559C81.9514 14.4559 82.7644 14.5117 82.7644 13.554C82.7644 13.554 82.8728 12.2218 83.3079 11.6577L82.8281 11.2641C82.8281 11.2641 80.386 12.5054 80.1262 10.5391C80.1262 10.5391 80.2569 8.78939 82.8967 9.19892L83.0736 9.90165H83.4817C83.4817 9.90165 86.1805 6.74651 85.2224 5.97526C85.2224 5.97526 83.8818 5.10998 81.5943 5.22471C81.5943 5.22471 81.3233 3.33163 78.3823 3.39537C78.3823 3.39537 78.3903 0.264134 70.2286 1.10869C70.2286 1.10869 64.1553 2.18271 67.1218 4.99525C67.1218 4.99525 65.2281 5.25499 65.5692 2.84083C65.5692 2.84083 60.1621 6.58079 63.0283 8.55673C63.0283 8.55673 67.0421 10.2235 67.0421 12.8034C67.0421 12.8034 66.057 10.9183 64.5617 10.4179C62.338 9.67697 61.0436 8.56789 61.3433 7.59426C61.3449 7.59266 60.4985 10.351 62.9183 11.884ZM79.4423 4.93629L79.479 6.00075L77.6458 5.07652L79.4423 4.93629ZM74.5151 9.51284C72.3472 7.05406 74.9519 6.62062 74.9519 6.62062C72.9912 7.52414 74.8722 9.41882 74.8722 9.41882C75.8908 10.4721 76.039 13.3803 76.039 13.3803C75.8525 11.1956 74.5151 9.51284 74.5151 9.51284ZM74.818 2.11897L76.5475 2.71654C76.5475 2.71654 69.108 0.845763 68.6728 4.86618C68.6744 4.86618 67.1537 1.2792 74.818 2.11897ZM68.0527 7.17357C68.048 7.18791 68.048 7.20385 68.0448 7.21978C68.0097 7.41578 67.9667 8.24919 69.124 9.64828C69.124 9.64828 71.4911 11.8282 72.0618 14.636C72.0666 14.6551 72.0682 14.663 72.0682 14.663C72.0666 14.6535 72.0634 14.6455 72.0618 14.636C72.014 14.4431 71.633 13.1397 69.2308 10.5773C68.9183 10.2443 67.8089 8.12649 68.0448 7.21978C68.048 7.18951 68.0527 7.17357 68.0527 7.17357Z" fill="black"/>
<path d="M64.8545 15.3864C64.8545 15.3864 65.0123 14.2996 61.1387 12.1325C59.4028 11.1636 59.9862 9.0586 59.2226 7.7344C58.4655 6.4086 55.0876 6.05643 54.7354 9.70556C54.7354 9.70556 55.6854 10.8895 55.6647 10.7652C55.5053 9.87447 55.8337 9.74062 55.9739 9.63545C56.0409 9.58764 56.83 9.27213 56.8156 10.9453C56.8076 11.7198 56.2736 11.6273 56.2736 11.6273C56.2736 11.6273 57.0611 12.6854 57.4277 12.6918C57.7928 12.6998 58.0143 12.4783 58.3858 12.6344C58.7604 12.7906 58.1642 13.6431 58.1642 13.6431C58.1642 13.6431 63.1058 14.3028 64.8545 15.3864Z" fill="black"/>
<path d="M36.2359 44.1602C34.3741 43.953 32.9681 45.145 31.7566 45C30.5483 44.8566 29.0005 44.2367 29.0595 41.864C29.0818 40.8616 29.6891 37.3161 29.6461 35.5425C29.619 34.2884 27.314 35.4628 25.1668 33.3451C24.459 32.3093 24.6439 32.8877 24.1848 31.4552C24.1848 31.4552 24.824 32.8877 27.0095 33.4455C28.3804 33.7944 28.9861 33.6797 29.5249 33.0662C29.9378 32.5993 29.466 30.7142 29.9123 30.3349C30.4495 29.8808 31.4745 30.456 31.9894 30.5294C32.2062 30.5596 32.9538 30.08 32.9474 30.0083C32.7386 28.0913 32.8852 28.1072 32.8262 28.1327C32.4819 28.2841 32.0579 28.5327 31.0871 27.4714C30.8082 27.1655 29.9442 27.5192 29.2683 27.3057C26.0945 26.3066 26.3448 24.9122 26.1216 24.9059C23.1327 24.8294 22.5748 22.3356 22.2369 22.1762C19.0185 20.6926 19.1747 16.5527 19.1747 16.5527C19.1747 16.5527 15.3521 22.2049 13.181 28.6267C11.52 32.534 5.87857 32.5818 5.52469 32.5276C5.52469 32.5276 3.23561 32.2328 2.37482 31.1986C2.18194 30.9644 0.956101 29.7677 4.11394 26.928C7.27019 24.09 14.8324 19.9533 13.0025 14.7154C12.9961 14.6867 11.6571 11.5714 7.44395 11.9411C5.41151 12.1212 3.20055 13.1984 2.49278 14.2374C1.78502 15.2763 5.34934 14.5704 5.34934 14.5704C5.13733 15.2126 4.64795 16.4778 3.43647 16.6611C2.26961 16.838 1.58576 16.0093 1.58576 16.0093C1.58576 16.0093 0.860457 17.5742 1.48374 18.5366C1.9779 19.2983 3.01723 20.272 4.55869 19.4529C4.55869 19.4529 4.99705 19.676 4.73085 20.2767C4.45348 20.9141 5.00343 20.8265 5.00343 20.8265C5.09589 20.8042 6.46041 19.6585 8.37329 16.685C8.72876 16.2053 9.4445 15.5393 10.4073 15.509C10.7724 15.4994 11.2426 15.9185 11.2569 16.6914C11.2585 16.7121 11.5439 18.7518 6.07465 22.5347C4.8249 23.6231 -1.93713 28.1678 0.541643 32.2137C0.554396 32.2344 0.724962 34.6916 5.75902 34.5992C6.50345 34.5864 7.70537 38.465 6.18782 40.033C1.93326 44.4391 4.86475 48.2555 5.00981 48.4706C5.26167 48.8515 7.80739 49.0921 8.81325 48.818C10.0247 48.4866 11.3175 48.3176 12.5561 49.2546C12.5561 49.2546 13.0694 48.6555 13.1077 48.5264C13.5237 47.1831 12.5928 46.8277 12.6629 46.8245C14.367 46.756 13.7405 48.3511 13.7979 48.3017C13.9892 48.1503 14.0896 48.0197 14.3303 47.5464C14.5232 47.1719 14.1486 45.8397 13.0343 45.4095C13.0072 45.3999 13.884 44.7291 14.5965 46.1839C14.6188 46.2286 14.6459 44.6128 12.4238 44.2096C10.5779 43.875 8.84832 45.2916 7.93651 45.3282C7.0279 45.3665 7.86 43.5881 7.86 43.5881C7.86 43.5881 14.9775 42.3579 17.807 37.6858C18.3314 36.607 18.5211 35.8485 18.5785 35.7146C18.5785 35.7146 19.1842 36.3711 18.6885 37.9423C18.4015 39.1279 18.3888 39.3701 22.943 41.8942C25.0823 43.0798 29.289 48.2953 29.984 48.5949C30.2965 48.7288 31.6881 49.3008 33.2885 48.7383C34.0138 48.4834 35.4628 48.1312 36.7891 48.9821C36.7891 48.9821 36.8608 48.8483 37.041 48.4929C37.1191 48.3431 37.508 46.4979 35.643 46.7257C35.5872 46.7337 38.0085 46.0357 37.6515 47.9097C37.6148 48.1216 38.1169 47.3042 38.1169 47.0556C38.1169 46.6556 38.0867 45.623 36.7652 45.3856C36.7365 45.3808 37.5829 44.8374 38.3752 45.6198C38.4103 45.6533 38.1393 44.3721 36.2359 44.1602ZM14.3781 29.8951C13.2989 33.1124 8.84513 33.2511 8.84513 33.2511C13.6082 31.8647 14.0115 29.476 14.0115 29.476C15.2182 25.274 16.9095 22.9793 16.9095 22.9793C16.1667 24.0613 14.9233 28.2809 14.3781 29.8951Z" fill="black"/>
<path d="M16.9252 9.90154L17.099 9.1988C19.7371 8.78768 19.8678 10.5389 19.8678 10.5389C19.6096 12.5069 17.1691 11.264 17.1691 11.264L16.6893 11.6576C17.1245 12.2217 17.2281 13.5538 17.2281 13.5538C17.2281 14.5115 18.0442 14.4558 18.0442 14.4558L19.6096 14.3171C20.1883 12.8161 20.9996 12.8336 20.9996 12.8336C19.4263 17.6492 22.4566 20.8378 22.4566 20.8378C21.3695 17.5711 23.2632 16.2389 23.2632 16.2389C22.4056 22.3882 25.1745 22.9029 25.1745 22.9029C24.5002 19.0578 26.7622 17.9408 26.7622 17.9408C24.8891 24.4327 30.242 26.4501 29.9838 26.0533C27.4779 22.2018 29.2951 20.5685 29.2951 20.5685C29.6411 23.73 30.3807 25.9927 32.4195 26.4772C32.7224 26.5473 32.6124 26.0294 32.6124 25.1195C32.6044 13.6957 35.3096 13.0057 37.0822 11.8839C39.4988 10.3509 38.6539 7.59255 38.6539 7.59255C38.9552 8.56618 37.6592 9.67526 35.4355 10.4162C33.9403 10.9166 32.9535 12.8017 32.9535 12.8017C32.9535 10.2234 36.969 8.55502 36.969 8.55502C39.8335 6.57908 34.4296 2.83912 34.4296 2.83912C34.766 5.25328 32.8706 4.99354 32.8706 4.99354C35.8404 2.181 29.767 1.10698 29.767 1.10698C21.6054 0.262425 21.6133 3.39366 21.6133 3.39366C18.6707 3.32992 18.4013 5.22301 18.4013 5.22301C16.1138 5.10827 14.7716 5.97355 14.7716 5.97355C13.8152 6.7448 16.5123 9.89994 16.5123 9.89994H16.9252V9.90154ZM25.479 9.51272C25.479 9.51272 24.1415 11.1955 23.9566 13.3802C23.9566 13.3802 24.1049 10.4736 25.1219 9.4187C25.1219 9.4187 27.0029 7.52562 25.0438 6.62051C25.0454 6.62051 27.6469 7.05394 25.479 9.51272ZM30.7665 10.5756C28.3674 13.1379 27.9832 14.4414 27.9354 14.6342C27.9338 14.6438 27.9306 14.6534 27.929 14.6613C27.929 14.6613 27.9306 14.6518 27.9354 14.6342C28.5061 11.8265 30.8717 9.64658 30.8717 9.64658C32.029 8.24588 31.9812 7.41407 31.9493 7.21807C31.9445 7.20373 31.9445 7.1862 31.9413 7.17186C31.9413 7.17186 31.9461 7.1878 31.9493 7.21807C32.1884 8.12478 31.0773 10.2425 30.7665 10.5756ZM25.1777 2.11886C32.8419 1.27908 31.3244 4.86606 31.3244 4.86606C30.8876 0.845648 23.4497 2.71642 23.4497 2.71642L25.1777 2.11886ZM20.5533 4.93617L22.3498 5.0764L20.5182 6.00064L20.5533 4.93617Z" fill="black"/>
<path d="M40.7731 7.73452C40.0128 9.06031 40.593 11.1637 38.8603 12.1326C34.9835 14.2998 35.1445 15.3865 35.1445 15.3865C36.89 14.3029 41.8348 13.6416 41.8348 13.6416C41.8348 13.6416 41.2386 12.7907 41.6132 12.633C41.983 12.4768 42.2062 12.6999 42.5728 12.6903C42.9363 12.6839 43.7254 11.6259 43.7254 11.6259C43.7254 11.6259 43.1897 11.7199 43.1834 10.9438C43.1706 9.27066 43.9565 9.58617 44.0266 9.63397C44.1669 9.73915 44.4921 9.873 44.3327 10.7638C44.312 10.8897 45.262 9.70409 45.262 9.70409C44.9097 6.05815 41.5303 6.40872 40.7731 7.73452Z" fill="black"/>
<path d="M52.5683 31.5767C52.6991 31.6612 52.8887 31.7265 53.0928 31.7265C53.3957 31.7265 53.5726 31.5704 53.5726 31.3377C53.5726 31.1258 53.4499 30.9999 53.1406 30.8852C52.7676 30.7481 52.5349 30.5505 52.5349 30.2318C52.5349 29.8733 52.8298 29.6104 53.2761 29.6104C53.5104 29.6104 53.6794 29.6645 53.7814 29.7219L53.7001 29.9625C53.6284 29.9179 53.4738 29.8558 53.2697 29.8558C52.9573 29.8558 52.8393 30.0422 52.8393 30.1984C52.8393 30.4119 52.9796 30.5171 53.2952 30.6398C53.681 30.7943 53.8755 30.9776 53.8755 31.3138C53.8755 31.6676 53.6172 31.9767 53.0753 31.9767C52.8553 31.9767 52.6146 31.9082 52.4902 31.8285L52.5683 31.5767Z" fill="black"/>
<path d="M54.5806 29.6467V31.9366H54.2793V29.6467H54.5806Z" fill="black"/>
<path d="M55.0947 31.9366V29.6467H55.4183L56.1484 30.8052C56.3158 31.0745 56.4513 31.3119 56.5565 31.551L56.5692 31.5462C56.5421 31.2402 56.5342 30.963 56.5342 30.6092V29.6467H56.8131V31.9366H56.515L55.7866 30.7749C55.6271 30.5216 55.4725 30.2586 55.3593 30.01L55.3498 30.0132C55.3657 30.3017 55.3721 30.5773 55.3721 30.9582V31.9366H55.0947Z" fill="black"/>
<path d="M58.9297 31.8665C58.8244 31.9207 58.6061 31.9749 58.3239 31.9749C57.6783 31.9749 57.1953 31.5685 57.1953 30.8116C57.1953 30.0929 57.6815 29.6101 58.3925 29.6101C58.6714 29.6101 58.8579 29.6707 58.936 29.7121L58.8595 29.9527C58.7527 29.8969 58.5933 29.8555 58.402 29.8555C57.8632 29.8555 57.5077 30.1997 57.5077 30.8005C57.5077 31.3646 57.8298 31.7199 58.3829 31.7199C58.5662 31.7199 58.7527 31.6833 58.8691 31.6259L58.9297 31.8665Z" fill="black"/>
<path d="M60.4868 30.8642H59.5989V31.6896H60.5936V31.9382H59.3008V29.6467H60.541V29.8937H59.5973V30.6172H60.4852V30.8642H60.4868Z" fill="black"/>
<path d="M53.1781 33.473H53.1686L52.6967 33.7279L52.625 33.4475L53.218 33.1304H53.532V35.8457H53.1797V33.473H53.1781Z" fill="black"/>
<path d="M54.7343 35.5906C54.8156 35.5953 54.9049 35.5906 55.0292 35.5746C55.2428 35.5491 55.4437 35.4615 55.5999 35.3117C55.78 35.1476 55.9076 34.9101 55.9602 34.5883H55.9442C55.7928 34.7715 55.5792 34.8815 55.3018 34.8815C54.8156 34.8815 54.5 34.5134 54.5 34.0449C54.5 33.5365 54.8778 33.084 55.4309 33.084C55.9873 33.084 56.33 33.5318 56.33 34.2297C56.33 34.8257 56.1291 35.2448 55.8629 35.5077C55.6541 35.7085 55.3672 35.8376 55.0739 35.871C54.94 35.8886 54.8172 35.8965 54.7359 35.8917V35.5906H54.7343ZM55.3991 33.3628C55.0898 33.3628 54.8682 33.6385 54.8682 34.0226C54.8682 34.3604 55.0739 34.5994 55.3911 34.5994C55.6366 34.5994 55.8279 34.4799 55.9299 34.3158C55.9442 34.2839 55.9602 34.2409 55.9602 34.1819C55.9618 33.715 55.7864 33.3644 55.4007 33.3644H55.3991V33.3628Z" fill="black"/>
<path d="M58.4281 33.1287V33.3709L57.2453 35.844H56.8675L58.0423 33.4426V33.4346H56.7129V33.1303H58.4281V33.1287Z" fill="black"/>
<path d="M59.7185 33.0841C60.2461 33.0841 60.5123 33.4108 60.5123 33.7518C60.5123 33.9828 60.3959 34.233 60.0628 34.386V34.4003C60.3975 34.5342 60.6111 34.7748 60.6111 35.1015C60.6111 35.5779 60.2047 35.8903 59.6866 35.8903C59.1207 35.8903 58.7764 35.5556 58.7764 35.1605C58.7764 34.8163 58.982 34.5693 59.3104 34.4274V34.4163C59.0075 34.2745 58.8784 34.0402 58.8784 33.806C58.8784 33.3757 59.2386 33.0825 59.7169 33.0825H59.7185V33.0841ZM59.6993 35.6242C60.0277 35.6242 60.2413 35.4202 60.2413 35.1397C60.2413 34.8147 60.0118 34.6505 59.6419 34.547C59.3279 34.6378 59.1542 34.8513 59.1542 35.1111C59.1446 35.3835 59.3486 35.6258 59.693 35.6258H59.6993V35.6242ZM59.7057 33.347C59.3996 33.347 59.2339 33.5478 59.2339 33.7837C59.2291 34.0546 59.4363 34.2012 59.7519 34.284C59.9863 34.2028 60.1648 34.037 60.1648 33.79C60.1648 33.5733 60.0357 33.347 59.7121 33.347H59.7057Z" fill="black"/>
<path d="M64.1552 17.2636L64.0994 16.9864L63.8268 16.9067C63.5128 16.8159 55.8087 14.6009 49.8134 14.765C43.8197 14.6009 36.1172 16.8159 35.8032 16.9067L35.529 16.9864L35.4716 17.2636C34.3047 23.0162 34.6507 29.5448 34.6538 29.6149C35.2707 39.3799 38.8478 44.7452 41.7427 47.5259C44.7714 50.4372 47.6503 51.1957 47.9978 51.2786C48.7406 51.5415 49.3942 51.5941 49.7082 51.6021C49.7082 51.6021 49.748 51.6037 49.815 51.6037C49.874 51.6037 49.9122 51.6037 49.9122 51.6037C50.239 51.5957 50.8926 51.5415 51.6354 51.2802C51.9813 51.1973 54.8618 50.4388 57.8905 47.5275C60.7822 44.7468 64.3608 39.3815 64.9746 29.6117C64.9777 29.5448 65.3237 23.0162 64.1552 17.2636ZM46.2682 15.8454L35.5449 26.5649C35.5545 25.5355 35.5896 24.3038 35.682 22.978L42.2623 16.4032C43.5344 16.1769 44.9037 15.9761 46.2682 15.8454ZM38.9196 17.0852L35.9721 20.0348C36.071 19.2667 36.1889 18.4954 36.3388 17.7321C36.7724 17.611 37.6969 17.3672 38.9196 17.0852ZM64.0388 29.5544C63.4443 38.9831 60.0345 44.1397 57.28 46.8056C54.3055 49.6867 51.425 50.3607 51.3963 50.3687L51.3389 50.3846C50.687 50.6173 50.1067 50.6555 49.874 50.6635C49.8692 50.6635 49.8485 50.6635 49.815 50.6635H49.8134C49.8118 50.6635 49.807 50.6635 49.8006 50.6635V48.9489L48.3485 50.4038C48.3277 50.3974 48.307 50.3926 48.2911 50.3846L48.2337 50.3687C48.2177 50.3639 47.2629 50.1392 45.8936 49.4078L49.8006 45.5006V42.8442L44.2549 48.3912C43.6492 47.9609 43.0115 47.443 42.3691 46.8232L49.8006 39.3927V36.7379L41.0907 45.4464C40.6045 44.8632 40.1135 44.2003 39.6369 43.4513L49.8006 33.2879V30.6332L38.6661 41.7638C38.2931 41.0371 37.9344 40.2404 37.6045 39.3783L49.8006 27.1832V24.5253L36.9286 37.396C36.6719 36.5339 36.4408 35.6129 36.2431 34.6313L49.8006 21.0769V18.4205L35.8637 32.3525C35.749 31.4634 35.6517 30.536 35.5912 29.5575C35.5912 29.5496 35.5848 29.4173 35.5768 29.191L49.0754 15.6972C49.3208 15.6972 49.5631 15.6972 49.8006 15.7036H49.815H49.8293C55.0579 15.5586 61.8518 17.337 63.2896 17.7321C64.3672 23.2903 64.0404 29.4954 64.0388 29.5544Z" fill="black"/>
</svg>
