<svg width="104" height="56" viewBox="0 0 104 56" fill="none" xmlns="http://www.w3.org/2000/svg">
<path d="M74.3668 11.1189C71.6811 9.26077 71.8197 8.2589 71.8221 8.24873C71.8283 7.86911 72.0578 7.66326 72.2378 7.66796C72.71 7.68283 73.0639 8.01 73.2369 8.2456C74.1765 9.70691 74.8475 10.2689 74.8929 10.2799C74.8929 10.2799 75.1638 10.3229 75.0253 10.0098C74.8961 9.71474 75.1106 9.60516 75.1106 9.60516C75.8662 10.0075 76.3783 9.52846 76.621 9.1551C76.9256 8.68235 76.5717 7.91373 76.5717 7.91373C76.5717 7.91373 76.235 8.32074 75.6626 8.23386C75.0652 8.14385 74.8256 7.52237 74.723 7.20694C74.723 7.20694 76.4738 7.5529 76.1254 7.04336C75.7777 6.53303 74.6917 6.00392 73.6934 5.91547C71.6248 5.73389 70.9671 7.26486 70.9639 7.27817C70.0651 9.85093 73.7788 11.8828 75.3291 13.2768C76.8817 14.6716 76.2788 15.2594 76.1841 15.3745C75.7597 15.8833 74.6369 16.0273 74.6369 16.0273C74.4623 16.0539 71.6913 16.0304 70.8762 14.1112C69.809 10.9577 67.9322 8.18063 67.9322 8.18063C67.9322 8.18063 68.0074 10.2141 66.4281 10.9428C66.2605 11.0211 65.9881 12.2452 64.5192 12.2836C64.4104 12.2867 64.5333 12.9716 62.9751 13.4623C62.6424 13.5664 62.2172 13.3927 62.0802 13.5437C61.6049 14.065 61.3959 13.9429 61.2267 13.8686C61.1978 13.8553 61.2698 13.8482 61.1672 14.7898C61.1633 14.825 61.5305 15.0606 61.637 15.0458C61.8907 15.0098 62.3934 14.7272 62.6588 14.9503C62.8773 15.1366 62.6455 16.0625 62.8483 16.2918C63.1114 16.5932 63.4113 16.6495 64.0831 16.4781C65.1558 16.2042 65.4705 15.5005 65.4705 15.5005C65.2458 16.2042 65.3358 15.9201 64.9882 16.4288C63.9335 17.4682 62.8021 16.8922 62.7872 17.5082C62.7669 18.3801 63.0652 20.1208 63.0762 20.6132C63.1043 21.7794 62.3464 22.0831 61.7513 22.1535C61.1578 22.2248 60.4673 21.6393 59.5519 21.741C58.6163 21.8451 58.4832 22.4744 58.5004 22.4572C58.8895 22.0737 59.3053 22.3406 59.2912 22.3422C58.6437 22.4588 58.6272 22.9668 58.6272 23.1624C58.6272 23.2845 58.8739 23.6861 58.8551 23.582C58.682 22.6615 59.8714 23.0043 59.8432 23.0004C58.9256 22.8885 59.1182 23.7957 59.1542 23.8685C59.245 24.043 59.2795 24.1087 59.2795 24.1087C59.9325 23.6916 60.6434 23.8645 60.9981 23.989C61.7858 24.2653 62.4701 23.9843 62.622 23.9185C62.9634 23.7722 65.0289 21.2104 66.0812 20.6273C68.3174 19.3867 68.3104 19.2677 68.171 18.6861C67.9283 17.9144 68.2243 17.5919 68.2243 17.5919C68.2525 17.6584 68.3472 18.0302 68.6032 18.5601C69.9922 20.855 73.489 21.4593 73.489 21.4593C73.489 21.4593 73.8978 22.3328 73.4515 22.314C73.0044 22.296 72.1548 21.6002 71.2482 21.7645C70.1559 21.9626 70.17 22.7554 70.1794 22.7343C70.5302 22.0197 70.9624 22.3492 70.9491 22.3539C70.401 22.5652 70.2177 23.2204 70.3117 23.4035C70.4315 23.6368 70.4808 23.701 70.574 23.7745C70.6045 23.798 70.296 23.0145 71.1315 23.049C71.1659 23.0505 70.7102 23.2251 70.9122 23.8849C70.9326 23.9483 71.1839 24.2426 71.1839 24.2426C71.7931 23.7824 72.4273 23.8653 73.024 24.0281C73.5165 24.1627 74.7669 24.0446 74.8914 23.8575C74.9618 23.7518 76.4017 21.8772 74.3127 19.7131C73.5673 18.9421 74.1577 17.037 74.521 17.044C76.9952 17.0894 77.0798 15.8825 77.0861 15.8723C78.3036 13.8858 74.9822 11.6535 74.3668 11.1189ZM70.2859 14.7342C70.0196 13.9406 69.4097 11.8688 69.0448 11.3373C69.0448 11.3373 69.8756 12.4644 70.4652 14.5284C70.4652 14.5284 70.6656 15.7025 73.0052 16.3826C73.0052 16.3834 70.8191 16.3153 70.2859 14.7342Z" fill="#1D1D1D"/>
<path d="M59.1374 5.88737C60.0057 6.4384 61.3344 6.77731 61.3305 12.3885C61.3305 12.8355 61.278 13.0899 61.4252 13.0554C62.4275 12.8175 62.79 11.706 62.9607 10.1531C62.9607 10.1531 63.8533 10.9554 62.6209 12.8472C62.4948 13.0421 65.1233 12.052 64.2048 8.86244C64.2048 8.86244 65.3174 9.41112 64.9839 11.2998C64.9839 11.2998 66.3447 11.047 65.9227 8.02651C65.9227 8.02651 66.8537 8.68086 66.3197 10.2854C66.3197 10.2854 67.8058 8.71921 67.0337 6.35386C67.0337 6.35386 67.4338 6.34525 67.7165 7.08257L68.4862 7.15066C68.4862 7.15066 68.8855 7.17806 68.8855 6.70765C68.8855 6.70765 68.9387 6.0533 69.1525 5.77623L68.9168 5.5829C68.9168 5.5829 67.7173 6.19263 67.5897 5.22676C67.5897 5.22676 67.6539 4.36735 68.9505 4.56851L69.0374 4.91368H69.2378C69.2378 4.91368 70.5634 3.36392 70.0929 2.98509C70.0929 2.98509 69.4344 2.56008 68.3108 2.61643C68.3108 2.61643 68.1777 1.68658 66.7331 1.71788C66.7331 1.71788 66.737 0.179862 62.7281 0.594697C62.7281 0.594697 59.745 1.12224 61.2021 2.50372C61.2021 2.50372 60.2719 2.6313 60.4395 1.4455C60.4395 1.4455 57.7836 3.28252 59.1914 4.25308C59.1914 4.25308 61.1629 5.07179 61.1629 6.33899C61.1629 6.33899 60.679 5.41305 59.9446 5.16728C58.8523 4.80332 58.2166 4.25855 58.3638 3.78032C58.3646 3.77954 57.9488 5.1344 59.1374 5.88737ZM67.2538 2.47476L67.2718 2.99761L66.3713 2.54364L67.2538 2.47476ZM64.8336 4.7227C63.7687 3.51498 65.0481 3.30209 65.0481 3.30209C64.085 3.74588 65.009 4.67652 65.009 4.67652C65.5093 5.19389 65.5821 6.62233 65.5821 6.62233C65.4905 5.54924 64.8336 4.7227 64.8336 4.7227ZM64.9823 1.09093L65.8319 1.38445C65.8319 1.38445 62.1777 0.465551 61.9639 2.44032C61.9647 2.44032 61.2177 0.678447 64.9823 1.09093ZM61.6593 3.57368C61.657 3.58073 61.657 3.58856 61.6554 3.59638C61.6382 3.69266 61.6171 4.10201 62.1855 4.78923C62.1855 4.78923 63.3482 5.85998 63.6286 7.23911C63.6309 7.2485 63.6317 7.25241 63.6317 7.25241C63.6309 7.24772 63.6293 7.2438 63.6286 7.23911C63.6051 7.1444 63.4179 6.50414 62.238 5.24555C62.0845 5.08196 61.5396 4.04174 61.6554 3.59638C61.657 3.58151 61.6593 3.57368 61.6593 3.57368Z" fill="#1D1D1D"/>
<path d="M60.0885 7.60779C60.0885 7.60779 60.1661 7.07398 58.2634 6.0095C57.4107 5.53361 57.6973 4.49966 57.3223 3.84923C56.9503 3.19801 55.2912 3.02503 55.1182 4.81744C55.1182 4.81744 55.5848 5.39899 55.5746 5.33794C55.4963 4.9004 55.6576 4.83465 55.7265 4.783C55.7594 4.75951 56.147 4.60454 56.14 5.42638C56.136 5.80678 55.8737 5.76138 55.8737 5.76138C55.8737 5.76138 56.2605 6.2811 56.4406 6.28423C56.6199 6.28814 56.7288 6.17935 56.9112 6.25605C57.0952 6.33276 56.8024 6.75151 56.8024 6.75151C56.8024 6.75151 59.2296 7.07555 60.0885 7.60779Z" fill="#1D1D1D"/>
<path d="M46.032 21.7411C45.1175 21.6393 44.4269 22.2248 43.8318 22.1535C43.2383 22.0831 42.478 21.7786 42.507 20.6132C42.518 20.1209 42.8163 18.3793 42.7952 17.5082C42.7818 16.8922 41.6496 17.469 40.595 16.4288C40.2473 15.9201 40.3382 16.2042 40.1127 15.5005C40.1127 15.5005 40.4266 16.2042 41.5001 16.4781C42.1735 16.6495 42.471 16.5932 42.7356 16.2918C42.9384 16.0625 42.7067 15.1366 42.9259 14.9503C43.1898 14.7272 43.6932 15.0098 43.9461 15.0458C44.0526 15.0606 44.4198 14.825 44.4167 14.7898C44.3141 13.8482 44.3862 13.8561 44.3572 13.8686C44.1881 13.9429 43.9798 14.065 43.503 13.5438C43.3659 13.3935 42.9416 13.5672 42.6096 13.4624C41.0507 12.9716 41.1736 12.2867 41.064 12.2836C39.5959 12.246 39.3218 11.0211 39.1558 10.9428C37.575 10.2141 37.6517 8.18064 37.6517 8.18064C37.6517 8.18064 35.7741 10.9569 34.7077 14.1112C33.8919 16.0304 31.1209 16.0539 30.9471 16.0273C30.9471 16.0273 29.8227 15.8825 29.3999 15.3745C29.3051 15.2595 28.703 14.6716 30.2541 13.2769C31.8044 11.8828 35.5189 9.85094 34.62 7.27818C34.6169 7.26409 33.9592 5.73389 31.8898 5.91548C30.8915 6.00393 29.8055 6.53304 29.4578 7.04336C29.1102 7.55369 30.8609 7.20695 30.8609 7.20695C30.7568 7.52238 30.5164 8.14385 29.9213 8.23386C29.3482 8.32074 29.0123 7.91374 29.0123 7.91374C29.0123 7.91374 28.656 8.68235 28.9622 9.15511C29.2049 9.52925 29.7154 10.0075 30.4726 9.60517C30.4726 9.60517 30.6879 9.71475 30.5571 10.0098C30.4209 10.3229 30.691 10.2799 30.691 10.2799C30.7364 10.2689 31.4067 9.70614 32.3462 8.2456C32.5208 8.01001 32.8724 7.68284 33.3453 7.66797C33.5246 7.66327 33.7556 7.86912 33.7627 8.24873C33.7634 8.25891 33.9036 9.26078 31.2172 11.1189C30.6033 11.6535 27.2819 13.8858 28.4994 15.8731C28.5057 15.8833 28.5895 17.0902 31.0622 17.0448C31.4278 17.0385 32.0182 18.9437 31.2728 19.7138C29.183 21.878 30.6229 23.7526 30.6941 23.8583C30.8179 24.0453 32.0683 24.1635 32.5623 24.0289C33.1574 23.8661 33.7924 23.7831 34.4008 24.2434C34.4008 24.2434 34.6529 23.9491 34.6717 23.8857C34.8761 23.2259 34.4188 23.0513 34.4533 23.0497C35.2903 23.0161 34.9825 23.7996 35.0107 23.7753C35.1047 23.701 35.154 23.6368 35.2723 23.4043C35.367 23.2204 35.183 22.566 34.6357 22.3547C34.6224 22.35 35.053 22.0205 35.403 22.7351C35.414 22.757 35.4273 21.9633 34.3358 21.7653C33.4291 21.601 32.5796 22.2968 32.1317 22.3148C31.6854 22.3336 32.0941 21.4601 32.0941 21.4601C32.0941 21.4601 35.5901 20.8558 36.9799 18.5609C37.2375 18.031 37.3307 17.6585 37.3589 17.5927C37.3589 17.5927 37.6564 17.9152 37.4129 18.6869C37.272 19.2693 37.2657 19.3882 39.5027 20.628C40.5535 21.2104 42.6198 23.7722 42.9611 23.9193C43.1146 23.9851 43.7982 24.2661 44.5843 23.9898C44.9405 23.8645 45.6523 23.6916 46.3037 24.1095C46.3037 24.1095 46.3389 24.0438 46.4274 23.8692C46.4658 23.7957 46.6568 22.8893 45.7407 23.0012C45.7133 23.0051 46.9027 22.6623 46.7273 23.5828C46.7093 23.6869 46.9559 23.2853 46.9559 23.1632C46.9559 22.9668 46.941 22.4596 46.292 22.343C46.2779 22.3406 46.6936 22.0737 47.0828 22.458C47.1 22.4745 46.9669 21.8452 46.032 21.7411ZM35.2957 14.7343C34.7657 16.3145 32.578 16.3826 32.578 16.3826C34.9176 15.7017 35.1157 14.5284 35.1157 14.5284C35.7084 12.4644 36.5391 11.3373 36.5391 11.3373C36.1742 11.8688 35.5635 13.9414 35.2957 14.7343Z" fill="#1D1D1D"/>
<path d="M36.5463 4.91361L36.6316 4.56843C37.9275 4.3665 37.9917 5.22669 37.9917 5.22669C37.8648 6.19334 36.6661 5.58282 36.6661 5.58282L36.4304 5.77615C36.6442 6.05323 36.6951 6.70758 36.6951 6.70758C36.6951 7.17798 37.096 7.15059 37.096 7.15059L37.8648 7.08249C38.1491 6.34518 38.5476 6.35379 38.5476 6.35379C37.7748 8.71914 39.2633 10.2853 39.2633 10.2853C38.7293 8.68078 39.6594 8.02644 39.6594 8.02644C39.2382 11.0469 40.5982 11.2997 40.5982 11.2997C40.267 9.41105 41.3781 8.86237 41.3781 8.86237C40.4581 12.0511 43.0873 13.042 42.9605 12.8471C41.7297 10.9553 42.6223 10.1531 42.6223 10.1531C42.7922 11.706 43.1555 12.8174 44.1569 13.0553C44.3057 13.0898 44.2516 12.8354 44.2516 12.3885C44.2477 6.77724 45.5764 6.43832 46.4471 5.8873C47.6341 5.13433 47.2192 3.77947 47.2192 3.77947C47.3671 4.2577 46.7306 4.80246 45.6383 5.16642C44.9039 5.41219 44.4192 6.33814 44.4192 6.33814C44.4192 5.07172 46.3915 4.25222 46.3915 4.25222C47.7986 3.28166 45.1442 1.44465 45.1442 1.44465C45.3095 2.63045 44.3785 2.50287 44.3785 2.50287C45.8372 1.12139 42.854 0.593843 42.854 0.593843C38.8451 0.179008 38.8491 1.71703 38.8491 1.71703C37.4037 1.68572 37.2713 2.61558 37.2713 2.61558C36.1478 2.55922 35.4885 2.98423 35.4885 2.98423C35.0187 3.36306 36.3435 4.91283 36.3435 4.91283H36.5463V4.91361ZM40.7478 4.72263C40.7478 4.72263 40.0909 5.54917 40 6.62226C40 6.62226 40.0729 5.1946 40.5724 4.67645C40.5724 4.67645 41.4963 3.74659 40.534 3.30201C40.5348 3.30201 41.8126 3.51491 40.7478 4.72263ZM43.3449 5.24469C42.1666 6.50329 41.9779 7.14354 41.9544 7.23825C41.9536 7.24295 41.952 7.24764 41.9512 7.25156C41.9512 7.25156 41.952 7.24686 41.9544 7.23825C42.2347 5.85912 43.3966 4.78838 43.3966 4.78838C43.9651 4.10038 43.9416 3.6918 43.9259 3.59553C43.9236 3.58848 43.9236 3.57987 43.922 3.57283C43.922 3.57283 43.9244 3.58066 43.9259 3.59553C44.0434 4.04089 43.4976 5.08111 43.3449 5.24469ZM40.5998 1.09086C44.3644 0.678375 43.619 2.44025 43.619 2.44025C43.4045 0.465479 39.7511 1.38438 39.7511 1.38438L40.5998 1.09086ZM38.3284 2.47469L39.2108 2.54357L38.3111 2.99754L38.3284 2.47469Z" fill="#1D1D1D"/>
<path d="M48.2603 3.84917C47.8868 4.50038 48.1718 5.53355 47.3207 6.00944C45.4165 7.07392 45.4956 7.60773 45.4956 7.60773C46.3529 7.07549 48.7818 6.75067 48.7818 6.75067C48.7818 6.75067 48.4889 6.3327 48.6729 6.25521C48.8546 6.17851 48.9642 6.28809 49.1443 6.28339C49.3228 6.28026 49.7104 5.76054 49.7104 5.76054C49.7104 5.76054 49.4473 5.80672 49.4442 5.42554C49.4379 4.6037 49.8239 4.75867 49.8584 4.78216C49.9273 4.83381 50.087 4.89956 50.0087 5.3371C49.9985 5.39893 50.4652 4.81659 50.4652 4.81659C50.2921 3.02576 48.6322 3.19795 48.2603 3.84917Z" fill="#1D1D1D"/>
<path d="M54.055 15.56C54.1192 15.6015 54.2123 15.6336 54.3126 15.6336C54.4613 15.6336 54.5482 15.5568 54.5482 15.4426C54.5482 15.3385 54.488 15.2766 54.3361 15.2203C54.1528 15.153 54.0385 15.0559 54.0385 14.8994C54.0385 14.7233 54.1834 14.5941 54.4026 14.5941C54.5177 14.5941 54.6007 14.6207 54.6508 14.6489L54.6109 14.7671C54.5756 14.7452 54.4997 14.7147 54.3995 14.7147C54.246 14.7147 54.1881 14.8062 54.1881 14.8829C54.1881 14.9878 54.257 15.0395 54.412 15.0997C54.6015 15.1757 54.697 15.2657 54.697 15.4308C54.697 15.6046 54.5702 15.7564 54.304 15.7564C54.1959 15.7564 54.0777 15.7228 54.0166 15.6836L54.055 15.56Z" fill="#1D1D1D"/>
<path d="M55.0435 14.6121V15.7368H54.8955V14.6121H55.0435Z" fill="#1D1D1D"/>
<path d="M55.2949 15.7368V14.6121H55.4539L55.8125 15.1811C55.8947 15.3134 55.9612 15.43 56.0129 15.5474L56.0192 15.545C56.0059 15.3948 56.002 15.2586 56.002 15.0848V14.6121H56.139V15.7368H55.9926L55.6347 15.1662C55.5564 15.0418 55.4805 14.9126 55.4249 14.7905L55.4202 14.7921C55.428 14.9338 55.4312 15.0692 55.4312 15.2562V15.7368H55.2949Z" fill="#1D1D1D"/>
<path d="M57.1771 15.7024C57.1254 15.729 57.0181 15.7557 56.8795 15.7557C56.5624 15.7557 56.3252 15.5561 56.3252 15.1843C56.3252 14.8313 56.564 14.5941 56.9132 14.5941C57.0502 14.5941 57.1418 14.6239 57.1802 14.6442L57.1426 14.7624C57.0902 14.735 57.0119 14.7147 56.9179 14.7147C56.6533 14.7147 56.4787 14.8837 56.4787 15.1788C56.4787 15.4559 56.6368 15.6304 56.9085 15.6304C56.9986 15.6304 57.0902 15.6124 57.1473 15.5842L57.1771 15.7024Z" fill="#1D1D1D"/>
<path d="M57.9429 15.21H57.5068V15.6155H57.9954V15.7376H57.3604V14.6121H57.9695V14.7334H57.506V15.0887H57.9421V15.21H57.9429Z" fill="#1D1D1D"/>
<path d="M54.3537 16.4914H54.349L54.1173 16.6166L54.082 16.4789L54.3733 16.3231H54.5275V17.6569H54.3545V16.4914H54.3537Z" fill="#1D1D1D"/>
<path d="M55.118 17.5316C55.158 17.534 55.2018 17.5316 55.2629 17.5238C55.3678 17.5113 55.4665 17.4682 55.5432 17.3946C55.6317 17.314 55.6943 17.1974 55.7201 17.0393H55.7123C55.6379 17.1293 55.533 17.1833 55.3968 17.1833C55.158 17.1833 55.0029 17.0025 55.0029 16.7724C55.0029 16.5227 55.1885 16.3004 55.4602 16.3004C55.7335 16.3004 55.9018 16.5204 55.9018 16.8632C55.9018 17.1559 55.8031 17.3618 55.6724 17.4909C55.5698 17.5895 55.4289 17.6529 55.2848 17.6694C55.219 17.678 55.1587 17.6819 55.1188 17.6795V17.5316H55.118ZM55.4445 16.4374C55.2926 16.4374 55.1838 16.5728 55.1838 16.7614C55.1838 16.9274 55.2848 17.0448 55.4406 17.0448C55.5612 17.0448 55.6552 16.9861 55.7053 16.9054C55.7123 16.8898 55.7201 16.8687 55.7201 16.8397C55.7209 16.6104 55.6348 16.4382 55.4453 16.4382H55.4445V16.4374Z" fill="#1D1D1D"/>
<path d="M56.9333 16.3223V16.4412L56.3523 17.656H56.1668L56.7438 16.4765V16.4725H56.0908V16.323H56.9333V16.3223Z" fill="#1D1D1D"/>
<path d="M57.5663 16.3003C57.8254 16.3003 57.9562 16.4608 57.9562 16.6283C57.9562 16.7418 57.899 16.8647 57.7354 16.9398V16.9469C57.8998 17.0126 58.0047 17.1308 58.0047 17.2913C58.0047 17.5253 57.8051 17.6787 57.5506 17.6787C57.2726 17.6787 57.1035 17.5143 57.1035 17.3202C57.1035 17.1511 57.2045 17.0298 57.3658 16.9602V16.9547C57.217 16.885 57.1536 16.77 57.1536 16.6549C57.1536 16.4436 57.3306 16.2996 57.5655 16.2996H57.5663V16.3003ZM57.5569 17.548C57.7182 17.548 57.8231 17.4478 57.8231 17.31C57.8231 17.1504 57.7103 17.0697 57.5287 17.0189C57.3744 17.0635 57.2891 17.1684 57.2891 17.2959C57.2844 17.4298 57.3846 17.5488 57.5537 17.5488H57.5569V17.548ZM57.56 16.4295C57.4097 16.4295 57.3282 16.5281 57.3282 16.644C57.3259 16.777 57.4277 16.849 57.5827 16.8897C57.6978 16.8498 57.7855 16.7684 57.7855 16.6471C57.7855 16.5406 57.7221 16.4295 57.5631 16.4295H57.56Z" fill="#1D1D1D"/>
<path d="M59.7449 8.52965L59.7175 8.39346L59.5836 8.35432C59.4293 8.30971 55.6452 7.22174 52.7004 7.30236C49.7564 7.22174 45.973 8.30971 45.8187 8.35432L45.6841 8.39346L45.6559 8.52965C45.0827 11.3552 45.2526 14.562 45.2542 14.5964C45.5572 19.3929 47.3142 22.0282 48.7361 23.3941C50.2238 24.8241 51.6379 25.1966 51.8086 25.2373C52.1734 25.3665 52.4945 25.3923 52.6487 25.3962C52.6487 25.3962 52.6683 25.397 52.7012 25.397C52.7301 25.397 52.7489 25.397 52.7489 25.397C52.9094 25.3931 53.2305 25.3665 53.5953 25.2381C53.7652 25.1974 55.1801 24.8248 56.6678 23.3948C58.0881 22.029 59.8459 19.3936 60.1473 14.5949C60.1489 14.562 60.3188 11.3552 59.7449 8.52965ZM50.959 7.83304L45.6919 13.0983C45.6966 12.5927 45.7138 11.9877 45.7592 11.3364L48.9914 8.10699C49.6162 7.99584 50.2888 7.89722 50.959 7.83304ZM47.3495 8.44199L45.9017 9.89078C45.9503 9.51351 46.0082 9.13468 46.0818 8.75977C46.2948 8.70028 46.7489 8.58052 47.3495 8.44199ZM59.6877 14.5667C59.3957 19.198 57.7209 21.7308 56.3679 23.0403C54.9068 24.4554 53.492 24.7865 53.4779 24.7904L53.4497 24.7982C53.1295 24.9125 52.8445 24.9313 52.7301 24.9352C52.7278 24.9352 52.7176 24.9352 52.7012 24.9352H52.7004C52.6996 24.9352 52.6973 24.9352 52.6941 24.9352V24.093L51.9808 24.8076C51.9706 24.8045 51.9605 24.8022 51.9526 24.7982L51.9244 24.7904C51.9166 24.7881 51.4476 24.6777 50.775 24.3184L52.6941 22.3992V21.0945L49.9701 23.8191C49.6726 23.6077 49.3594 23.3534 49.0439 23.0489L52.6941 19.3991V18.0951L48.4159 22.3726C48.1771 22.0862 47.9359 21.7605 47.7018 21.3927L52.6941 16.4006V15.0966L47.225 20.5638C47.0418 20.2069 46.8656 19.8155 46.7035 19.3921L52.6941 13.402V12.0964L46.3715 18.4184C46.2455 17.9949 46.1319 17.5425 46.0348 17.0604L52.6941 10.4027V9.0979L45.8485 15.9411C45.7921 15.5044 45.7444 15.0488 45.7146 14.5682C45.7146 14.5643 45.7115 14.4994 45.7076 14.3882L52.3379 7.76025C52.4584 7.76025 52.5775 7.76025 52.6941 7.76338H52.7012H52.7082C55.2764 7.69215 58.6135 8.56565 59.3197 8.75977C59.849 11.4899 59.6885 14.5377 59.6877 14.5667Z" fill="#1D1D1D"/>
<path d="M42.623 37.3319C42.623 33.7706 39.5231 30.8738 35.7131 30.8738C31.9024 30.8738 28.8018 33.7706 28.8018 37.3319C28.8018 40.8924 31.9016 43.79 35.7131 43.79C39.5231 43.7908 42.623 40.8932 42.623 37.3319ZM35.7124 34.5102C37.139 34.5102 38.2993 35.7767 38.2993 37.3327C38.2993 38.8895 37.139 40.1551 35.7124 40.1551C34.285 40.1551 33.1246 38.8895 33.1246 37.3327C33.1246 35.7767 34.285 34.5102 35.7124 34.5102Z" fill="#1D1D1D"/>
<path d="M35.8828 45.5189H34.7506H31.6445V47.0562C31.6445 47.9281 32.4009 49.1366 33.8212 49.1366H34.7498V49.1389H46.0546V55.4178H50.285V45.5189H35.8828Z" fill="#1D1D1D"/>
<path d="M50.2682 32.958C50.2682 32.0791 49.5102 30.8619 48.0907 30.8619L46.0283 30.8627V44.6736H50.2674V32.958H50.2682Z" fill="#1D1D1D"/>
<path d="M22.5795 36.167V34.2032L22.5772 34.0764V32.9196C22.5772 32.0406 21.8216 30.8235 20.4012 30.8235L18.3389 30.8251V34.4686H18.3396V44.6782H22.5787V39.8105H26.0082V36.1678H22.5795V36.167Z" fill="#1D1D1D"/>
<path d="M5.79173 42.2372L5.80112 42.2293C6.21454 41.8528 6.5708 41.4709 6.85893 41.0975C7.11653 40.7774 7.55187 40.1794 7.89482 39.4171C8.76158 40.8158 10.1858 42.0039 10.6634 42.3092C10.7136 42.3506 10.7645 42.3874 10.8146 42.4234C10.8388 42.4407 10.8647 42.4579 10.8921 42.4774C11.2984 42.7741 12.9302 43.8824 13.4783 43.8824C13.4783 43.8824 13.4783 43.8824 13.4791 43.8824C13.5119 43.8824 13.5456 43.8785 13.5746 43.8722C13.851 43.8112 14.1297 43.4449 14.3709 43.0167L15.6644 41.1789L15.3206 41.0662C14.183 40.6929 13.3037 40.0644 12.5974 39.5603C11.9334 39.0844 11.3846 38.3056 10.9853 37.7374L10.9281 37.656C10.528 37.0901 10.2493 36.5007 10.0966 35.9058C9.93762 35.2812 9.91413 35.1239 9.86402 34.6997L9.86011 33.0403L9.85932 33.0239C9.81 32.2334 9.32298 31.6886 8.63552 31.6315V31.6221H5.98121V34.2426L5.98356 34.4735V34.7036C5.92953 35.2562 5.91231 35.3141 5.83871 35.5849C5.81287 35.6773 5.78155 35.7923 5.74005 35.9544C5.57876 36.5844 5.28749 37.2427 4.87564 37.9096C4.46457 38.5756 3.89221 39.2488 3.17735 39.9109C2.09605 40.7179 1.65523 40.9801 0.422811 41.5578L0 41.7534L0.959937 42.4187C2.14772 43.3384 2.87746 43.8057 3.12723 43.8057C3.55396 43.8057 4.74879 43.102 5.79173 42.2372Z" fill="#1D1D1D"/>
<path d="M4.35352 52.3763C4.35352 53.4095 4.63069 54.193 5.17565 54.7073C5.71434 55.2129 6.39632 55.4704 7.20749 55.4704H22.6244V45.5457L4.35352 45.5472V52.3763ZM8.49706 50.7303V49.1563H18.3133V51.7063H9.34347C9.08273 51.7063 8.88542 51.6351 8.72256 51.4825C8.5738 51.3416 8.49706 51.088 8.49706 50.7303Z" fill="#1D1D1D"/>
<path d="M77.5054 38.8753H73.4824V32.911C73.4824 32.0305 72.7269 30.811 71.3065 30.811L69.2441 30.8118V55.417H73.4824V42.543H77.5054V38.8753Z" fill="#1D1D1D"/>
<path d="M57.4337 31.629H54.2188V33.1772C54.2188 34.0561 54.9751 35.2732 56.3947 35.2732H58.457V35.2662H63.1902C62.7235 37.1713 61.5349 39.2189 60.55 40.4055C59.0748 42.1806 56.8785 43.7093 54.5257 44.5984L54.3143 44.6783L54.2532 44.8959C54.1874 45.1275 54.1874 45.1275 54.9446 46.1106C55.2844 46.5505 55.6798 47.0593 55.9084 47.3512C56.0705 47.5602 56.2067 47.6338 56.3586 47.6792C56.4401 47.7034 56.5372 47.7167 56.6319 47.7167C56.7368 47.7167 56.8355 47.7011 56.924 47.6706C59.7294 46.7039 61.8309 45.2129 63.5386 42.9782C65.525 40.3757 66.7574 37.3443 67.1027 34.2095L67.1998 31.6282H58.457H57.4337V31.629Z" fill="#1D1D1D"/>
<path d="M103.364 42.1893H99.628C100.669 38.6664 100.448 31.6306 100.448 31.6306H87.17H83.4579H82.9317V33.1819C82.9317 34.0625 83.6865 35.2827 85.1068 35.2827H86.1184L86.1192 35.2835H96.1093C96.1445 38.7869 95.7084 40.9237 95.2582 42.1893H82.1597V42.1901H79.5586V43.7422C79.5586 44.6228 80.315 45.843 81.7345 45.843H82.1597V45.8446H90.6558V55.4179H95.0946V45.8438H103.364V42.1893H103.364Z" fill="#1D1D1D"/>
</svg>
