<svg width="60" height="31" viewBox="0 0 60 31" fill="none" xmlns="http://www.w3.org/2000/svg">
<path d="M56.055 12.9248C52.8116 10.6807 52.979 9.47078 52.9818 9.45849C52.9894 9.00003 53.2664 8.75143 53.4839 8.7571C54.0541 8.77506 54.4816 9.17018 54.6905 9.45471C55.8253 11.2195 56.6356 11.8982 56.6905 11.9115C56.6905 11.9115 57.0177 11.9635 56.8503 11.5854C56.6943 11.229 56.9534 11.0967 56.9534 11.0967C57.8659 11.5825 58.4843 11.004 58.7774 10.5531C59.1453 9.98218 58.7179 9.05392 58.7179 9.05392C58.7179 9.05392 58.3113 9.54546 57.62 9.44053C56.8985 9.33183 56.6092 8.58128 56.4853 8.20033C56.4853 8.20033 58.5997 8.61814 58.1789 8.00277C57.759 7.38645 56.4475 6.74744 55.2418 6.64063C52.7435 6.42132 51.9492 8.27028 51.9454 8.28635C50.8599 11.3935 55.3449 13.8474 57.2172 15.5309C59.0923 17.2154 58.3642 17.9253 58.2498 18.0643C57.7373 18.6787 56.3813 18.8526 56.3813 18.8526C56.1704 18.8848 52.8239 18.8564 51.8395 16.5386C50.5507 12.7301 48.284 9.37625 48.284 9.37625C48.284 9.37625 48.3748 11.8321 46.4675 12.7121C46.2652 12.8067 45.9361 14.2851 44.1621 14.3314C44.0307 14.3352 44.1792 15.1623 42.2974 15.755C41.8955 15.8807 41.3821 15.6708 41.2166 15.8533C40.6426 16.4828 40.3901 16.3354 40.1859 16.2456C40.1509 16.2295 40.2379 16.221 40.114 17.3582C40.1093 17.4007 40.5528 17.6852 40.6814 17.6673C40.9877 17.6238 41.5948 17.2825 41.9154 17.5519C42.1792 17.7769 41.8993 18.8952 42.1442 19.1721C42.4619 19.5361 42.8241 19.6041 43.6354 19.3971C44.9309 19.0663 45.3111 18.2165 45.3111 18.2165C45.0397 19.0663 45.1484 18.7231 44.7286 19.3376C43.4548 20.5929 42.0884 19.8972 42.0705 20.6411C42.0459 21.6941 42.4062 23.7964 42.4194 24.391C42.4534 25.7995 41.5381 26.1662 40.8194 26.2513C40.1027 26.3373 39.2686 25.6303 38.1632 25.7531C37.0332 25.8789 36.8725 26.6389 36.8933 26.6181C37.3632 26.1549 37.8653 26.4772 37.8483 26.4791C37.0663 26.62 37.0465 27.2334 37.0465 27.4698C37.0465 27.6172 37.3443 28.1021 37.3216 27.9764C37.1126 26.8648 38.549 27.2788 38.515 27.2741C37.4067 27.1389 37.6393 28.2345 37.6828 28.3224C37.7925 28.5332 37.8341 28.6126 37.8341 28.6126C38.6228 28.1088 39.4814 28.3177 39.9097 28.468C40.861 28.8017 41.6875 28.4623 41.8709 28.3829C42.2832 28.2061 44.7777 25.1122 46.0486 24.408C48.7493 22.9098 48.7408 22.7661 48.5725 22.0637C48.2793 21.1317 48.6368 20.7422 48.6368 20.7422C48.6708 20.8226 48.7852 21.2716 49.0944 21.9115C50.7719 24.6831 54.995 25.4128 54.995 25.4128C54.995 25.4128 55.4886 26.4678 54.9496 26.4451C54.4097 26.4233 53.3837 25.583 52.2887 25.7815C50.9696 26.0207 50.9866 26.9782 50.9979 26.9527C51.4216 26.0897 51.9435 26.4876 51.9275 26.4933C51.2655 26.7485 51.0443 27.5397 51.1577 27.7609C51.3024 28.0426 51.362 28.1201 51.4745 28.209C51.5114 28.2373 51.1388 27.2911 52.1478 27.3327C52.1894 27.3346 51.6391 27.5454 51.883 28.3422C51.9076 28.4188 52.2112 28.7742 52.2112 28.7742C52.9468 28.2184 53.7128 28.3186 54.4333 28.5152C55.0281 28.6778 56.5382 28.5351 56.6886 28.3092C56.7737 28.1816 58.5127 25.9176 55.9898 23.3039C55.0896 22.3728 55.8026 20.072 56.2413 20.0805C59.2294 20.1354 59.3316 18.6778 59.3391 18.6655C60.8096 16.2664 56.7983 13.5704 56.055 12.9248ZM51.1265 17.291C50.805 16.3325 50.0684 13.8304 49.6278 13.1885C49.6278 13.1885 50.631 14.5497 51.3431 17.0424C51.3431 17.0424 51.5852 18.4603 54.4106 19.2818C54.4106 19.2827 51.7705 19.2005 51.1265 17.291Z" fill="white"/>
<path d="M37.6641 6.60662C38.7128 7.27209 40.3175 7.6814 40.3127 14.4581C40.3127 14.9978 40.2494 15.305 40.4272 15.2634C41.6375 14.9761 42.0754 13.6338 42.2815 11.7584C42.2815 11.7584 43.3595 12.7273 41.8711 15.012C41.7189 15.2474 44.8933 14.0516 43.7841 10.1996C43.7841 10.1996 45.1278 10.8622 44.7249 13.1432C44.7249 13.1432 46.3684 12.8379 45.8587 9.19006C45.8587 9.19006 46.9831 9.98031 46.3382 11.9181C46.3382 11.9181 48.1329 10.0266 47.2005 7.17C47.2005 7.17 47.6837 7.15961 48.0251 8.05006L48.9546 8.13229C48.9546 8.13229 49.4369 8.16538 49.4369 7.59727C49.4369 7.59727 49.5012 6.80702 49.7594 6.47239L49.4747 6.23891C49.4747 6.23891 48.0261 6.97528 47.8719 5.80881C47.8719 5.80881 47.9495 4.7709 49.5154 5.01383L49.6203 5.4307H49.8624C49.8624 5.4307 51.4633 3.55905 50.895 3.10154C50.895 3.10154 50.0998 2.58826 48.7428 2.65632C48.7428 2.65632 48.5821 1.53333 46.8374 1.57114C46.8374 1.57114 46.8422 -0.286324 42.0007 0.214672C42.0007 0.214672 38.3979 0.851787 40.1577 2.5202C40.1577 2.5202 39.0343 2.67428 39.2366 1.24219C39.2366 1.24219 36.0291 3.46075 37.7293 4.63289C37.7293 4.63289 40.1104 5.62164 40.1104 7.15204C40.1104 7.15204 39.526 6.03378 38.639 5.73697C37.3199 5.29742 36.5521 4.6395 36.7298 4.06194C36.7308 4.061 36.2287 5.69727 37.6641 6.60662ZM47.4663 2.48522L47.488 3.11667L46.4006 2.56841L47.4663 2.48522ZM44.5434 5.20005C43.2574 3.74149 44.8025 3.48438 44.8025 3.48438C43.6394 4.02035 44.7552 5.14428 44.7552 5.14428C45.3594 5.76911 45.4474 7.49423 45.4474 7.49423C45.3367 6.19826 44.5434 5.20005 44.5434 5.20005ZM44.7231 0.813976L45.749 1.16845C45.749 1.16845 41.3359 0.0587015 41.0777 2.44363C41.0787 2.44363 40.1766 0.315816 44.7231 0.813976ZM40.7099 3.81239C40.7071 3.8209 40.7071 3.83035 40.7052 3.8398C40.6844 3.95607 40.6588 4.45045 41.3453 5.2804C41.3453 5.2804 42.7496 6.57354 43.0881 8.23911C43.0909 8.25045 43.0919 8.25518 43.0919 8.25518C43.0909 8.24951 43.089 8.24478 43.0881 8.23911C43.0597 8.12473 42.8337 7.3515 41.4087 5.8315C41.2234 5.63393 40.5652 4.37766 40.7052 3.8398C40.7071 3.82184 40.7099 3.81239 40.7099 3.81239Z" fill="white"/>
<path d="M38.8123 8.68436C38.8123 8.68436 38.9059 8.03968 36.6081 6.75411C35.5783 6.17938 35.9244 4.93067 35.4715 4.14515C35.0223 3.35868 33.0185 3.14978 32.8096 5.31445C32.8096 5.31445 33.3731 6.01679 33.3609 5.94306C33.2663 5.41465 33.4611 5.33525 33.5443 5.27286C33.584 5.2445 34.0521 5.05734 34.0436 6.04988C34.0389 6.50928 33.7221 6.45446 33.7221 6.45446C33.7221 6.45446 34.1892 7.08212 34.4067 7.0859C34.6232 7.09063 34.7547 6.95923 34.975 7.05187C35.1972 7.14451 34.8436 7.65023 34.8436 7.65023C34.8436 7.65023 37.775 8.04157 38.8123 8.68436Z" fill="white"/>
<path d="M21.8352 25.7531C20.7307 25.6303 19.8967 26.3373 19.178 26.2513C18.4613 26.1662 17.5431 25.7985 17.5781 24.391C17.5913 23.7964 17.9516 21.6932 17.926 20.6411C17.91 19.8972 16.5426 20.5938 15.2689 19.3376C14.849 18.7231 14.9587 19.0663 14.6864 18.2165C14.6864 18.2165 15.0656 19.0663 16.362 19.3971C17.1752 19.6041 17.5346 19.5361 17.8542 19.1721C18.0991 18.8952 17.8192 17.7769 18.084 17.5519C18.4026 17.2825 19.0107 17.6238 19.3161 17.6673C19.4447 17.6852 19.8882 17.4007 19.8844 17.3582C19.7605 16.221 19.8475 16.2304 19.8125 16.2456C19.6083 16.3354 19.3567 16.4828 18.7809 15.8533C18.6154 15.6718 18.1029 15.8816 17.7019 15.755C15.8192 15.1623 15.9677 14.3352 15.8353 14.3314C14.0623 14.286 13.7313 12.8067 13.5309 12.7121C11.6217 11.8321 11.7144 9.37626 11.7144 9.37626C11.7144 9.37626 9.44679 12.7292 8.15887 16.5386C7.17355 18.8564 3.82704 18.8848 3.61712 18.8526C3.61712 18.8526 2.25923 18.6778 1.7486 18.0643C1.63418 17.9253 0.907007 17.2154 2.78026 15.5309C4.65256 13.8474 9.13852 11.3935 8.05296 8.28636C8.04918 8.26935 7.25487 6.42133 4.75563 6.64064C3.54998 6.74745 2.23842 7.38646 1.81857 8.00278C1.39872 8.6191 3.5131 8.20034 3.5131 8.20034C3.38733 8.58129 3.09703 9.33183 2.37837 9.44054C1.68619 9.54547 1.28052 9.05392 1.28052 9.05392C1.28052 9.05392 0.850271 9.98218 1.22 10.5531C1.51314 11.005 2.12968 11.5825 3.04408 11.0967C3.04408 11.0967 3.30412 11.229 3.1462 11.5854C2.98167 11.9635 3.30791 11.9115 3.30791 11.9115C3.36275 11.8983 4.17219 11.2186 5.30692 9.45472C5.51779 9.17019 5.94237 8.77507 6.51351 8.75711C6.73006 8.75144 7.00901 9.00004 7.01752 9.4585C7.01847 9.47079 7.18773 10.6807 3.94335 12.9248C3.202 13.5704 -0.80927 16.2664 0.661149 18.6664C0.668714 18.6787 0.769895 20.1363 3.75612 20.0815C4.19772 20.0739 4.91071 22.3747 4.01049 23.3049C1.48667 25.9186 3.22564 28.1825 3.31169 28.3101C3.46109 28.536 4.97123 28.6788 5.56791 28.5162C6.28657 28.3196 7.05345 28.2194 7.78819 28.7752C7.78819 28.7752 8.09268 28.4198 8.11537 28.3432C8.36218 27.5463 7.80994 27.3355 7.85155 27.3336C8.8624 27.293 8.49078 28.2392 8.52482 28.2099C8.63829 28.1201 8.69786 28.0426 8.84065 27.7619C8.95507 27.5397 8.73285 26.7495 8.07187 26.4942C8.0558 26.4886 8.57588 26.0906 8.99857 26.9536C9.01181 26.9801 9.02788 26.0216 7.70971 25.7825C6.61469 25.5839 5.58871 26.4243 5.04782 26.446C4.50883 26.4687 5.00243 25.4138 5.00243 25.4138C5.00243 25.4138 9.22457 24.684 10.903 21.9125C11.2141 21.2725 11.3267 20.8226 11.3607 20.7432C11.3607 20.7432 11.72 21.1326 11.4259 22.0647C11.2557 22.768 11.2482 22.9117 13.9498 24.409C15.2188 25.1122 17.7142 28.2061 18.1265 28.3838C18.3119 28.4633 19.1374 28.8026 20.0868 28.4689C20.517 28.3177 21.3766 28.1088 22.1633 28.6135C22.1633 28.6135 22.2059 28.5341 22.3127 28.3233C22.3591 28.2345 22.5898 27.1399 21.4834 27.275C21.4503 27.2798 22.8867 26.8657 22.6749 27.9774C22.6531 28.1031 22.951 27.6182 22.951 27.4707C22.951 27.2334 22.933 26.6209 22.1491 26.4801C22.1321 26.4772 22.6342 26.1549 23.1042 26.619C23.125 26.6389 22.9642 25.8789 21.8352 25.7531ZM8.86902 17.291C8.22885 19.1996 5.58682 19.2818 5.58682 19.2818C8.41229 18.4594 8.65153 17.0424 8.65153 17.0424C9.36735 14.5497 10.3706 13.1886 10.3706 13.1886C9.92999 13.8304 9.19242 16.3335 8.86902 17.291Z" fill="white"/>
<path d="M10.3797 5.43067L10.4828 5.0138C12.0478 4.76992 12.1253 5.80878 12.1253 5.80878C11.9721 6.97619 10.5244 6.23888 10.5244 6.23888L10.2398 6.47236C10.4979 6.80699 10.5594 7.59724 10.5594 7.59724C10.5594 8.16535 11.0435 8.13226 11.0435 8.13226L11.9721 8.05002C12.3154 7.15958 12.7967 7.16997 12.7967 7.16997C11.8634 10.0266 13.661 11.9181 13.661 11.9181C13.0161 9.98028 14.1395 9.19003 14.1395 9.19003C13.6307 12.8378 15.2732 13.1432 15.2732 13.1432C14.8732 10.8622 16.2151 10.1996 16.2151 10.1996C15.104 14.0506 18.2793 15.2473 18.1261 15.012C16.6396 12.7272 17.7176 11.7583 17.7176 11.7583C17.9228 13.6338 18.3616 14.9761 19.571 15.2634C19.7507 15.305 19.6854 14.9978 19.6854 14.458C19.6807 7.68137 21.2854 7.27206 22.3369 6.60659C23.7705 5.69723 23.2693 4.06096 23.2693 4.06096C23.448 4.63853 22.6792 5.29644 21.3601 5.73599C20.4731 6.03281 19.8878 7.15107 19.8878 7.15107C19.8878 5.62161 22.2698 4.63191 22.2698 4.63191C23.969 3.45977 20.7634 1.24121 20.7634 1.24121C20.963 2.6733 19.8386 2.51922 19.8386 2.51922C21.6003 0.850811 17.9975 0.213695 17.9975 0.213695C13.156 -0.2873 13.1607 1.57016 13.1607 1.57016C11.4152 1.53235 11.2554 2.65534 11.2554 2.65534C9.8984 2.58728 9.1022 3.10056 9.1022 3.10056C8.53484 3.55808 10.1348 5.42972 10.1348 5.42972H10.3797V5.43067ZM15.4538 5.20002C15.4538 5.20002 14.6605 6.19823 14.5508 7.4942C14.5508 7.4942 14.6387 5.77002 15.242 5.14425C15.242 5.14425 16.3578 4.02126 15.1957 3.48435C15.1966 3.48435 16.7399 3.74146 15.4538 5.20002ZM18.5904 5.83052C17.1673 7.35052 16.9394 8.12376 16.911 8.23813C16.9101 8.24381 16.9082 8.24948 16.9072 8.2542C16.9072 8.2542 16.9082 8.24853 16.911 8.23813C17.2496 6.57256 18.6528 5.27942 18.6528 5.27942C19.3393 4.44853 19.311 3.95509 19.2921 3.83882C19.2892 3.83032 19.2892 3.81992 19.2873 3.81141C19.2873 3.81141 19.2902 3.82086 19.2921 3.83882C19.4339 4.37669 18.7748 5.63296 18.5904 5.83052ZM15.2751 0.813945C19.8216 0.315785 18.9214 2.4436 18.9214 2.4436C18.6623 0.0586703 14.2501 1.16842 14.2501 1.16842L15.2751 0.813945ZM12.5319 2.48519L13.5976 2.56838L12.5111 3.11663L12.5319 2.48519Z" fill="white"/>
<path d="M24.526 4.14518C24.075 4.93164 24.4192 6.17941 23.3913 6.75413C21.0916 8.03971 21.1871 8.68439 21.1871 8.68439C22.2225 8.0416 25.1558 7.64931 25.1558 7.64931C25.1558 7.64931 24.8021 7.14453 25.0244 7.05095C25.2437 6.95831 25.3761 7.09065 25.5936 7.08498C25.8092 7.0812 26.2773 6.45354 26.2773 6.45354C26.2773 6.45354 25.9596 6.50931 25.9558 6.04896C25.9482 5.05642 26.4144 5.24359 26.456 5.27194C26.5392 5.33433 26.7321 5.41373 26.6376 5.94214C26.6253 6.01682 27.1889 5.31354 27.1889 5.31354C26.9799 3.15075 24.9752 3.35871 24.526 4.14518Z" fill="white"/>
<path d="M31.5229 18.2885C31.6004 18.3386 31.713 18.3774 31.834 18.3774C32.0137 18.3774 32.1186 18.2848 32.1186 18.1467C32.1186 18.021 32.0458 17.9463 31.8624 17.8783C31.6411 17.797 31.503 17.6798 31.503 17.4907C31.503 17.278 31.678 17.1221 31.9427 17.1221C32.0818 17.1221 32.182 17.1542 32.2425 17.1882L32.1943 17.331C32.1517 17.3045 32.06 17.2676 31.939 17.2676C31.7536 17.2676 31.6837 17.3782 31.6837 17.4709C31.6837 17.5975 31.7669 17.6599 31.9541 17.7327C32.1829 17.8244 32.2983 17.9331 32.2983 18.1326C32.2983 18.3424 32.1451 18.5258 31.8236 18.5258C31.6931 18.5258 31.5503 18.4852 31.4766 18.4379L31.5229 18.2885Z" fill="white"/>
<path d="M32.7178 17.1438V18.5022H32.5391V17.1438H32.7178Z" fill="white"/>
<path d="M33.0215 18.5022V17.1438H33.2134L33.6465 17.831C33.7458 17.9908 33.8262 18.1316 33.8886 18.2734L33.8962 18.2706C33.8801 18.0891 33.8754 17.9246 33.8754 17.7147V17.1438H34.0409V18.5022H33.864L33.4319 17.8131C33.3373 17.6628 33.2456 17.5068 33.1785 17.3593L33.1728 17.3612C33.1822 17.5323 33.186 17.6958 33.186 17.9218V18.5022H33.0215Z" fill="white"/>
<path d="M35.2964 18.4606C35.234 18.4927 35.1044 18.5249 34.9371 18.5249C34.5541 18.5249 34.2676 18.2838 34.2676 17.8348C34.2676 17.4085 34.556 17.1221 34.9777 17.1221C35.1432 17.1221 35.2538 17.158 35.3002 17.1826L35.2548 17.3253C35.1914 17.2922 35.0969 17.2676 34.9834 17.2676C34.6638 17.2676 34.4529 17.4718 34.4529 17.8282C34.4529 18.1628 34.6439 18.3736 34.9721 18.3736C35.0808 18.3736 35.1914 18.3519 35.2605 18.3178L35.2964 18.4606Z" fill="white"/>
<path d="M36.2201 17.866H35.6934V18.3556H36.2835V18.5031H35.5166V17.1438H36.2523V17.2903H35.6925V17.7195H36.2192V17.866H36.2201Z" fill="white"/>
<path d="M31.8857 19.4134H31.8801L31.6002 19.5647L31.5576 19.3983L31.9094 19.2102H32.0957V20.821H31.8867V19.4134H31.8857Z" fill="white"/>
<path d="M32.8089 20.6695C32.8572 20.6724 32.9101 20.6695 32.9839 20.6601C33.1106 20.645 33.2297 20.593 33.3224 20.5041C33.4292 20.4067 33.5049 20.2659 33.5361 20.075H33.5266C33.4368 20.1837 33.3101 20.2489 33.1456 20.2489C32.8572 20.2489 32.6699 20.0305 32.6699 19.7526C32.6699 19.4511 32.894 19.1826 33.2222 19.1826C33.5522 19.1826 33.7555 19.4482 33.7555 19.8623C33.7555 20.2158 33.6363 20.4644 33.4784 20.6204C33.3545 20.7395 33.1843 20.8161 33.0103 20.8359C32.9309 20.8463 32.8581 20.851 32.8099 20.8482V20.6695H32.8089ZM33.2032 19.348C33.0198 19.348 32.8884 19.5116 32.8884 19.7394C32.8884 19.9398 33.0103 20.0816 33.1985 20.0816C33.3441 20.0816 33.4576 20.0107 33.5181 19.9133C33.5266 19.8944 33.5361 19.8689 33.5361 19.8339C33.537 19.5569 33.433 19.349 33.2042 19.349H33.2032V19.348Z" fill="white"/>
<path d="M34.9989 19.2092V19.3529L34.2973 20.82H34.0732L34.7701 19.3954V19.3907H33.9814V19.2102H34.9989V19.2092Z" fill="white"/>
<path d="M35.7649 19.1828C36.0779 19.1828 36.2358 19.3766 36.2358 19.5789C36.2358 19.716 36.1668 19.8644 35.9692 19.9551V19.9636C36.1677 20.043 36.2944 20.1858 36.2944 20.3795C36.2944 20.6622 36.0533 20.8475 35.746 20.8475C35.4103 20.8475 35.2061 20.649 35.2061 20.4145C35.2061 20.2103 35.328 20.0638 35.5228 19.9797V19.9731C35.3432 19.8889 35.2666 19.75 35.2666 19.611C35.2666 19.3558 35.4803 19.1819 35.764 19.1819H35.7649V19.1828ZM35.7536 20.6896C35.9484 20.6896 36.0751 20.5686 36.0751 20.4022C36.0751 20.2094 35.9389 20.112 35.7195 20.0506C35.5332 20.1045 35.4302 20.2311 35.4302 20.3852C35.4245 20.5469 35.5455 20.6905 35.7498 20.6905H35.7536V20.6896ZM35.7573 19.3388C35.5758 19.3388 35.4774 19.4579 35.4774 19.5978C35.4746 19.7585 35.5975 19.8455 35.7848 19.8946C35.9238 19.8464 36.0297 19.7481 36.0297 19.6016C36.0297 19.473 35.9531 19.3388 35.7611 19.3388H35.7573Z" fill="white"/>
<path d="M38.3974 9.79789L38.3643 9.63341L38.2026 9.58615C38.0163 9.53227 33.4462 8.21834 29.8898 8.3157C26.3343 8.21834 21.7651 9.53227 21.5788 9.58615L21.4162 9.63341L21.3821 9.79789C20.69 13.2103 20.8951 17.0831 20.897 17.1247C21.263 22.9174 23.3849 26.1001 25.1022 27.7496C26.8988 29.4766 28.6066 29.9266 28.8127 29.9757C29.2534 30.1317 29.6411 30.1629 29.8274 30.1676C29.8274 30.1676 29.851 30.1686 29.8907 30.1686C29.9257 30.1686 29.9484 30.1686 29.9484 30.1686C30.1422 30.1638 30.5299 30.1317 30.9706 29.9767C31.1758 29.9275 32.8845 29.4776 34.6812 27.7506C36.3965 26.101 38.5194 22.9183 38.8834 17.1228C38.8853 17.0831 39.0905 13.2103 38.3974 9.79789ZM27.7867 8.9566L21.4256 15.3155C21.4313 14.7048 21.4521 13.9741 21.507 13.1876L25.4104 9.28744C26.165 9.15321 26.9773 9.03411 27.7867 8.9566ZM23.4275 9.69202L21.6791 11.4417C21.7377 10.9861 21.8077 10.5286 21.8965 10.0758C22.1538 10.004 22.7022 9.85933 23.4275 9.69202ZM38.3284 17.0888C37.9757 22.682 35.953 25.7409 34.319 27.3223C32.5545 29.0314 30.8458 29.4313 30.8288 29.436L30.7947 29.4454C30.408 29.5834 30.0638 29.6061 29.9257 29.6109C29.9229 29.6109 29.9106 29.6109 29.8907 29.6109H29.8898C29.8888 29.6109 29.886 29.6109 29.8822 29.6109V28.5937L29.0208 29.4568C29.0085 29.453 28.9962 29.4502 28.9867 29.4454L28.9527 29.436C28.9432 29.4331 28.3768 29.2999 27.5645 28.866L29.8822 26.5482V24.9724L26.5924 28.2629C26.2331 28.0077 25.8549 27.7005 25.4738 27.3327L29.8822 22.9249V21.3501L24.7154 26.516C24.427 26.1701 24.1357 25.7768 23.853 25.3325L29.8822 19.3036V17.7287L23.2771 24.3315C23.0559 23.9004 22.8431 23.4278 22.6474 22.9164L29.8822 15.6822V14.1055L22.2464 21.7405C22.0942 21.2291 21.9571 20.6827 21.8398 20.1004L29.8822 12.0599V10.4842L21.6148 18.7487C21.5467 18.2212 21.489 17.6711 21.4531 17.0907C21.4531 17.086 21.4493 17.0075 21.4446 16.8733L29.452 8.86869C29.5976 8.86869 29.7413 8.86869 29.8822 8.87247H29.8907H29.8992C33.0008 8.78645 37.031 9.84137 37.8839 10.0758C38.5232 13.3729 38.3293 17.0538 38.3284 17.0888Z" fill="white"/>
</svg>
