<svg width="104" height="56" viewBox="0 0 104 56" fill="none" xmlns="http://www.w3.org/2000/svg">
<path d="M74.3668 11.2738C71.6811 9.41568 71.8197 8.41381 71.8221 8.40363C71.8283 8.02402 72.0578 7.81817 72.2378 7.82287C72.71 7.83774 73.0639 8.16491 73.2369 8.4005C74.1765 9.86182 74.8475 10.4238 74.8929 10.4348C74.8929 10.4348 75.1638 10.4778 75.0253 10.1647C74.8961 9.86965 75.1106 9.76007 75.1106 9.76007C75.8662 10.1624 76.3783 9.68336 76.621 9.31001C76.9256 8.83726 76.5717 8.06864 76.5717 8.06864C76.5717 8.06864 76.235 8.47564 75.6626 8.38876C75.0652 8.29875 74.8256 7.67728 74.723 7.36185C74.723 7.36185 76.4738 7.70781 76.1254 7.19826C75.7777 6.68794 74.6917 6.15883 73.6934 6.07038C71.6248 5.88879 70.9671 7.41977 70.9639 7.43308C70.0651 10.0058 73.7788 12.0377 75.3291 13.4318C76.8817 14.8265 76.2788 15.4144 76.1841 15.5294C75.7597 16.0382 74.6369 16.1822 74.6369 16.1822C74.4623 16.2088 71.6913 16.1853 70.8762 14.2661C69.809 11.1126 67.9322 8.33554 67.9322 8.33554C67.9322 8.33554 68.0074 10.369 66.4281 11.0977C66.2605 11.176 65.9881 12.4001 64.5192 12.4385C64.4104 12.4416 64.5333 13.1265 62.9751 13.6173C62.6424 13.7214 62.2172 13.5476 62.0802 13.6987C61.6049 14.2199 61.3959 14.0978 61.2267 14.0235C61.1978 14.0102 61.2698 14.0031 61.1672 14.9447C61.1633 14.9799 61.5305 15.2155 61.637 15.2007C61.8907 15.1647 62.3934 14.8821 62.6588 15.1052C62.8773 15.2915 62.6455 16.2174 62.8483 16.4467C63.1114 16.7481 63.4113 16.8044 64.0831 16.633C65.1558 16.3591 65.4705 15.6554 65.4705 15.6554C65.2458 16.3591 65.3358 16.075 64.9882 16.5837C63.9335 17.6232 62.8021 17.0471 62.7872 17.6631C62.7669 18.535 63.0652 20.2758 63.0762 20.7681C63.1043 21.9343 62.3464 22.238 61.7513 22.3084C61.1578 22.3797 60.4673 21.7942 59.5519 21.896C58.6163 22.0001 58.4832 22.6294 58.5004 22.6121C58.8895 22.2286 59.3053 22.4955 59.2912 22.4971C58.6437 22.6137 58.6272 23.1217 58.6272 23.3174C58.6272 23.4395 58.8739 23.841 58.8551 23.7369C58.682 22.8164 59.8714 23.1592 59.8432 23.1553C58.9256 23.0434 59.1182 23.9506 59.1542 24.0234C59.245 24.1979 59.2795 24.2636 59.2795 24.2636C59.9325 23.8465 60.6434 24.0194 60.9981 24.1439C61.7858 24.4202 62.4701 24.1392 62.622 24.0735C62.9634 23.9271 65.0289 21.3653 66.0812 20.7822C68.3174 19.5416 68.3104 19.4226 68.171 18.841C67.9283 18.0693 68.2243 17.7468 68.2243 17.7468C68.2525 17.8134 68.3472 18.1851 68.6032 18.715C69.9922 21.0099 73.489 21.6142 73.489 21.6142C73.489 21.6142 73.8978 22.4877 73.4515 22.4689C73.0044 22.4509 72.1548 21.7551 71.2482 21.9194C70.1559 22.1175 70.17 22.9103 70.1794 22.8892C70.5302 22.1746 70.9624 22.5041 70.9491 22.5088C70.401 22.7201 70.2177 23.3753 70.3117 23.5584C70.4315 23.7917 70.4808 23.8559 70.574 23.9294C70.6045 23.9529 70.296 23.1694 71.1315 23.2039C71.1659 23.2054 70.7102 23.38 70.9122 24.0398C70.9326 24.1032 71.1839 24.3975 71.1839 24.3975C71.7931 23.9373 72.4273 24.0202 73.024 24.183C73.5165 24.3177 74.7669 24.1995 74.8914 24.0124C74.9618 23.9067 76.4017 22.0321 74.3127 19.868C73.5673 19.097 74.1577 17.1919 74.521 17.1989C76.9952 17.2443 77.0798 16.0374 77.0861 16.0272C78.3036 14.0407 74.9822 11.8084 74.3668 11.2738ZM70.2859 14.8892C70.0196 14.0955 69.4097 12.0237 69.0448 11.4922C69.0448 11.4922 69.8756 12.6193 70.4652 14.6833C70.4652 14.6833 70.6656 15.8574 73.0052 16.5375C73.0052 16.5383 70.8191 16.4702 70.2859 14.8892Z" fill="white"/>
<path d="M59.1374 6.04228C60.0057 6.5933 61.3344 6.93222 61.3305 12.5435C61.3305 12.9904 61.278 13.2448 61.4252 13.2103C62.4275 12.9724 62.79 11.8609 62.9607 10.308C62.9607 10.308 63.8533 11.1103 62.6209 13.0021C62.4948 13.197 65.1233 12.2069 64.2048 9.01735C64.2048 9.01735 65.3174 9.56603 64.9839 11.4547C64.9839 11.4547 66.3447 11.2019 65.9227 8.18142C65.9227 8.18142 66.8537 8.83576 66.3197 10.4403C66.3197 10.4403 67.8058 8.87411 67.0337 6.50877C67.0337 6.50877 67.4338 6.50016 67.7165 7.23747L68.4862 7.30557C68.4862 7.30557 68.8855 7.33296 68.8855 6.86256C68.8855 6.86256 68.9387 6.20821 69.1525 5.93113L68.9168 5.7378C68.9168 5.7378 67.7173 6.34753 67.5897 5.38167C67.5897 5.38167 67.6539 4.52226 68.9505 4.72341L69.0374 5.06859H69.2378C69.2378 5.06859 70.5634 3.51883 70.0929 3.14C70.0929 3.14 69.4344 2.71498 68.3108 2.77134C68.3108 2.77134 68.1777 1.84148 66.7331 1.87279C66.7331 1.87279 66.737 0.334769 62.7281 0.749605C62.7281 0.749605 59.745 1.27715 61.2021 2.65863C61.2021 2.65863 60.2719 2.78621 60.4395 1.60041C60.4395 1.60041 57.7836 3.43742 59.1914 4.40798C59.1914 4.40798 61.1629 5.2267 61.1629 6.4939C61.1629 6.4939 60.679 5.56796 59.9446 5.32219C58.8523 4.95823 58.2166 4.41346 58.3638 3.93523C58.3646 3.93444 57.9488 5.28931 59.1374 6.04228ZM67.2538 2.62967L67.2718 3.15252L66.3713 2.69855L67.2538 2.62967ZM64.8336 4.87761C63.7687 3.66989 65.0481 3.45699 65.0481 3.45699C64.085 3.90079 65.009 4.83143 65.009 4.83143C65.5093 5.3488 65.5821 6.77724 65.5821 6.77724C65.4905 5.70415 64.8336 4.87761 64.8336 4.87761ZM64.9823 1.24584L65.8319 1.53936C65.8319 1.53936 62.1777 0.620458 61.9639 2.59523C61.9647 2.59523 61.2177 0.833354 64.9823 1.24584ZM61.6593 3.72859C61.657 3.73564 61.657 3.74346 61.6554 3.75129C61.6382 3.84756 61.6171 4.25692 62.1855 4.94414C62.1855 4.94414 63.3482 6.01488 63.6286 7.39401C63.6309 7.40341 63.6317 7.40732 63.6317 7.40732C63.6309 7.40262 63.6293 7.39871 63.6286 7.39401C63.6051 7.29931 63.4179 6.65905 62.238 5.40046C62.0845 5.23687 61.5396 4.19665 61.6554 3.75129C61.657 3.73642 61.6593 3.72859 61.6593 3.72859Z" fill="white"/>
<path d="M60.0885 7.7627C60.0885 7.7627 60.1661 7.22889 58.2634 6.16441C57.4107 5.68852 57.6973 4.65456 57.3223 4.00413C56.9503 3.35292 55.2912 3.17994 55.1182 4.97234C55.1182 4.97234 55.5848 5.55389 55.5746 5.49284C55.4963 5.05531 55.6576 4.98956 55.7265 4.9379C55.7594 4.91442 56.147 4.75945 56.14 5.58129C56.136 5.96169 55.8737 5.91629 55.8737 5.91629C55.8737 5.91629 56.2605 6.43601 56.4406 6.43914C56.6199 6.44305 56.7288 6.33425 56.9112 6.41096C57.0952 6.48767 56.8024 6.90641 56.8024 6.90641C56.8024 6.90641 59.2296 7.23046 60.0885 7.7627Z" fill="white"/>
<path d="M46.032 21.8961C45.1175 21.7943 44.4269 22.3798 43.8318 22.3086C43.2383 22.2381 42.478 21.9337 42.507 20.7682C42.518 20.2759 42.8163 18.5344 42.7952 17.6632C42.7818 17.0472 41.6496 17.6241 40.595 16.5838C40.2473 16.0751 40.3382 16.3592 40.1127 15.6556C40.1127 15.6556 40.4266 16.3592 41.5001 16.6332C42.1735 16.8046 42.471 16.7482 42.7356 16.4469C42.9384 16.2175 42.7067 15.2916 42.9259 15.1053C43.1898 14.8822 43.6932 15.1648 43.9461 15.2008C44.0526 15.2157 44.4198 14.9801 44.4167 14.9449C44.3141 14.0033 44.3862 14.0111 44.3572 14.0236C44.1881 14.098 43.9798 14.2201 43.503 13.6988C43.3659 13.5485 42.9416 13.7223 42.6096 13.6174C41.0507 13.1266 41.1736 12.4418 41.064 12.4386C39.5959 12.4011 39.3218 11.1761 39.1558 11.0978C37.575 10.3691 37.6517 8.33567 37.6517 8.33567C37.6517 8.33567 35.7741 11.1119 34.7077 14.2662C33.8919 16.1854 31.1209 16.2089 30.9471 16.1823C30.9471 16.1823 29.8227 16.0375 29.3999 15.5295C29.3051 15.4145 28.703 14.8267 30.2541 13.4319C31.8044 12.0379 35.5189 10.006 34.62 7.43321C34.6169 7.41912 33.9592 5.88892 31.8898 6.07051C30.8915 6.15896 29.8055 6.68807 29.4578 7.19839C29.1102 7.70872 30.8609 7.36198 30.8609 7.36198C30.7568 7.67741 30.5164 8.29888 29.9213 8.38889C29.3482 8.47577 29.0123 8.06876 29.0123 8.06876C29.0123 8.06876 28.656 8.83738 28.9622 9.31014C29.2049 9.68427 29.7154 10.1625 30.4726 9.7602C30.4726 9.7602 30.6879 9.86978 30.5571 10.1649C30.4209 10.4779 30.691 10.4349 30.691 10.4349C30.7364 10.4239 31.4067 9.86117 32.3462 8.40063C32.5208 8.16504 32.8724 7.83787 33.3453 7.82299C33.5246 7.8183 33.7556 8.02415 33.7627 8.40376C33.7634 8.41394 33.9036 9.4158 31.2172 11.274C30.6033 11.8085 27.2819 14.0408 28.4994 16.0281C28.5057 16.0383 28.5895 17.2452 31.0622 17.1998C31.4278 17.1936 32.0182 19.0987 31.2728 19.8689C29.183 22.0331 30.6229 23.9076 30.6941 24.0133C30.8179 24.2004 32.0683 24.3186 32.5623 24.1839C33.1574 24.0211 33.7924 23.9382 34.4008 24.3984C34.4008 24.3984 34.6529 24.1041 34.6717 24.0407C34.8761 23.3809 34.4188 23.2063 34.4533 23.2048C35.2903 23.1711 34.9825 23.9546 35.0107 23.9303C35.1047 23.856 35.154 23.7918 35.2723 23.5593C35.367 23.3754 35.183 22.7211 34.6357 22.5097C34.6224 22.505 35.053 22.1755 35.403 22.8901C35.414 22.912 35.4273 22.1184 34.3358 21.9204C33.4291 21.756 32.5796 22.4518 32.1317 22.4698C31.6854 22.4886 32.0941 21.6151 32.0941 21.6151C32.0941 21.6151 35.5901 21.0108 36.9799 18.7159C37.2375 18.186 37.3307 17.8135 37.3589 17.7477C37.3589 17.7477 37.6564 18.0702 37.4129 18.842C37.272 19.4243 37.2657 19.5433 39.5027 20.7831C40.5535 21.3654 42.6198 23.9272 42.9611 24.0744C43.1146 24.1401 43.7982 24.4211 44.5843 24.1448C44.9405 24.0196 45.6523 23.8466 46.3037 24.2646C46.3037 24.2646 46.3389 24.1988 46.4274 24.0243C46.4658 23.9507 46.6568 23.0443 45.7407 23.1562C45.7133 23.1602 46.9027 22.8173 46.7273 23.7378C46.7093 23.8419 46.9559 23.4404 46.9559 23.3183C46.9559 23.1218 46.941 22.6146 46.292 22.498C46.2779 22.4956 46.6936 22.2287 47.0828 22.613C47.1 22.6295 46.9669 22.0002 46.032 21.8961ZM35.2957 14.8893C34.7657 16.4696 32.578 16.5377 32.578 16.5377C34.9176 15.8567 35.1157 14.6834 35.1157 14.6834C35.7084 12.6194 36.5391 11.4923 36.5391 11.4923C36.1742 12.0238 35.5635 14.0964 35.2957 14.8893Z" fill="white"/>
<path d="M36.5473 5.06864L36.6326 4.72346C37.9285 4.52153 37.9927 5.38172 37.9927 5.38172C37.8658 6.34837 36.6671 5.73785 36.6671 5.73785L36.4314 5.93118C36.6452 6.20826 36.696 6.86261 36.696 6.86261C36.696 7.33301 37.0969 7.30562 37.0969 7.30562L37.8658 7.23752C38.15 6.50021 38.5486 6.50882 38.5486 6.50882C37.7758 8.87417 39.2642 10.4404 39.2642 10.4404C38.7302 8.83581 39.6604 8.18147 39.6604 8.18147C39.2392 11.2019 40.5992 11.4548 40.5992 11.4548C40.268 9.56608 41.3791 9.0174 41.3791 9.0174C40.4591 12.2062 43.0883 13.1971 42.9615 13.0022C41.7306 11.1104 42.6232 10.3081 42.6232 10.3081C42.7931 11.861 43.1564 12.9724 44.1579 13.2104C44.3066 13.2448 44.2526 12.9904 44.2526 12.5435C44.2487 6.93227 45.5774 6.59335 46.4481 6.04233C47.6351 5.28936 47.2201 3.93449 47.2201 3.93449C47.3681 4.41273 46.7315 4.95749 45.6393 5.32145C44.9048 5.56722 44.4202 6.49317 44.4202 6.49317C44.4202 5.22675 46.3925 4.40725 46.3925 4.40725C47.7995 3.43669 45.1452 1.59968 45.1452 1.59968C45.3104 2.78548 44.3795 2.6579 44.3795 2.6579C45.8382 1.27642 42.855 0.748872 42.855 0.748872C38.8461 0.334037 38.85 1.87206 38.85 1.87206C37.4046 1.84075 37.2723 2.77061 37.2723 2.77061C36.1487 2.71425 35.4895 3.13926 35.4895 3.13926C35.0197 3.51809 36.3445 5.06786 36.3445 5.06786H36.5473V5.06864ZM40.7488 4.87766C40.7488 4.87766 40.0918 5.7042 40.001 6.77729C40.001 6.77729 40.0738 5.34963 40.5734 4.83148C40.5734 4.83148 41.4973 3.90162 40.535 3.45704C40.5358 3.45704 41.8136 3.66994 40.7488 4.87766ZM43.3459 5.39972C42.1675 6.65832 41.9788 7.29857 41.9553 7.39328C41.9546 7.39798 41.953 7.40267 41.9522 7.40659C41.9522 7.40659 41.953 7.40189 41.9553 7.39328C42.2357 6.01415 43.3976 4.94341 43.3976 4.94341C43.966 4.2554 43.9426 3.84683 43.9269 3.75056C43.9246 3.74351 43.9245 3.7349 43.923 3.72786C43.923 3.72786 43.9253 3.73569 43.9269 3.75056C44.0443 4.19592 43.4986 5.23614 43.3459 5.39972ZM40.6008 1.24589C44.3654 0.833405 43.62 2.59528 43.62 2.59528C43.4054 0.620508 39.752 1.53941 39.752 1.53941L40.6008 1.24589ZM38.3294 2.62972L39.2118 2.6986L38.3121 3.15257L38.3294 2.62972Z" fill="white"/>
<path d="M48.2603 4.0042C47.8868 4.65541 48.1718 5.68858 47.3207 6.16447C45.4165 7.22895 45.4956 7.76276 45.4956 7.76276C46.3529 7.23052 48.7818 6.9057 48.7818 6.9057C48.7818 6.9057 48.4889 6.48773 48.6729 6.41024C48.8546 6.33354 48.9642 6.44311 49.1443 6.43842C49.3228 6.43529 49.7104 5.91557 49.7104 5.91557C49.7104 5.91557 49.4473 5.96175 49.4442 5.58057C49.4379 4.75873 49.8239 4.9137 49.8584 4.93718C49.9273 4.98884 50.087 5.05459 50.0087 5.49212C49.9985 5.55396 50.4652 4.97162 50.4652 4.97162C50.2921 3.18079 48.6322 3.35298 48.2603 4.0042Z" fill="white"/>
<path d="M54.055 15.715C54.1192 15.7565 54.2123 15.7886 54.3126 15.7886C54.4613 15.7886 54.5482 15.7119 54.5482 15.5976C54.5482 15.4935 54.488 15.4317 54.3361 15.3753C54.1528 15.308 54.0385 15.2109 54.0385 15.0544C54.0385 14.8783 54.1834 14.7491 54.4026 14.7491C54.5177 14.7491 54.6007 14.7758 54.6508 14.8039L54.6109 14.9221C54.5756 14.9002 54.4997 14.8697 54.3995 14.8697C54.246 14.8697 54.1881 14.9613 54.1881 15.038C54.1881 15.1428 54.257 15.1945 54.412 15.2548C54.6015 15.3307 54.697 15.4207 54.697 15.5859C54.697 15.7596 54.5702 15.9115 54.304 15.9115C54.1959 15.9115 54.0777 15.8778 54.0166 15.8387L54.055 15.715Z" fill="white"/>
<path d="M55.0435 14.7671V15.8918H54.8955V14.7671H55.0435Z" fill="white"/>
<path d="M55.2949 15.8918V14.7671H55.4539L55.8125 15.3361C55.8947 15.4684 55.9612 15.585 56.0129 15.7024L56.0192 15.7001C56.0059 15.5498 56.002 15.4136 56.002 15.2398V14.7671H56.139V15.8918H55.9926L55.6347 15.3212C55.5564 15.1968 55.4805 15.0676 55.4249 14.9455L55.4202 14.9471C55.428 15.0888 55.4312 15.2242 55.4312 15.4113V15.8918H55.2949Z" fill="white"/>
<path d="M57.1771 15.8575C57.1254 15.8841 57.0181 15.9107 56.8795 15.9107C56.5624 15.9107 56.3252 15.7111 56.3252 15.3393C56.3252 14.9863 56.564 14.7491 56.9132 14.7491C57.0502 14.7491 57.1418 14.7789 57.1802 14.7992L57.1426 14.9174C57.0902 14.89 57.0119 14.8697 56.9179 14.8697C56.6533 14.8697 56.4787 15.0387 56.4787 15.3338C56.4787 15.6109 56.6368 15.7855 56.9085 15.7855C56.9986 15.7855 57.0902 15.7674 57.1473 15.7393L57.1771 15.8575Z" fill="white"/>
<path d="M57.9429 15.3651H57.5068V15.7705H57.9954V15.8926H57.3604V14.7671H57.9695V14.8884H57.506V15.2438H57.9421V15.3651H57.9429Z" fill="white"/>
<path d="M54.3537 16.6464H54.349L54.1173 16.7717L54.082 16.6339L54.3733 16.4781H54.5275V17.8119H54.3545V16.6464H54.3537Z" fill="white"/>
<path d="M55.118 17.6866C55.158 17.689 55.2018 17.6866 55.2629 17.6788C55.3678 17.6663 55.4665 17.6232 55.5432 17.5497C55.6317 17.4691 55.6943 17.3524 55.7201 17.1943H55.7123C55.6379 17.2843 55.533 17.3383 55.3968 17.3383C55.158 17.3383 55.0029 17.1575 55.0029 16.9274C55.0029 16.6777 55.1885 16.4554 55.4602 16.4554C55.7335 16.4554 55.9018 16.6754 55.9018 17.0182C55.9018 17.3109 55.8031 17.5168 55.6724 17.6459C55.5698 17.7446 55.4289 17.808 55.2848 17.8244C55.219 17.833 55.1587 17.8369 55.1188 17.8346V17.6866H55.118ZM55.4445 16.5924C55.2926 16.5924 55.1838 16.7278 55.1838 16.9165C55.1838 17.0824 55.2848 17.1998 55.4406 17.1998C55.5612 17.1998 55.6552 17.1411 55.7053 17.0605C55.7123 17.0448 55.7201 17.0237 55.7201 16.9947C55.7209 16.7654 55.6348 16.5932 55.4453 16.5932H55.4445V16.5924Z" fill="white"/>
<path d="M56.9333 16.4773V16.5963L56.3523 17.811H56.1668L56.7438 16.6315V16.6276H56.0908V16.4781H56.9333V16.4773Z" fill="white"/>
<path d="M57.5663 16.4554C57.8254 16.4554 57.9562 16.6158 57.9562 16.7833C57.9562 16.8968 57.899 17.0197 57.7354 17.0948V17.1019C57.8998 17.1676 58.0047 17.2858 58.0047 17.4463C58.0047 17.6803 57.8051 17.8337 57.5506 17.8337C57.2726 17.8337 57.1035 17.6694 57.1035 17.4752C57.1035 17.3062 57.2045 17.1849 57.3658 17.1152V17.1097C57.217 17.0401 57.1536 16.925 57.1536 16.8099C57.1536 16.5986 57.3306 16.4546 57.5655 16.4546H57.5663V16.4554ZM57.5569 17.703C57.7182 17.703 57.8231 17.6028 57.8231 17.4651C57.8231 17.3054 57.7103 17.2248 57.5287 17.1739C57.3744 17.2185 57.2891 17.3234 57.2891 17.451C57.2844 17.5848 57.3846 17.7038 57.5537 17.7038H57.5569V17.703ZM57.56 16.5845C57.4097 16.5845 57.3282 16.6831 57.3282 16.799C57.3259 16.932 57.4277 17.0041 57.5827 17.0448C57.6978 17.0048 57.7855 16.9234 57.7855 16.8021C57.7855 16.6957 57.7221 16.5845 57.5631 16.5845H57.56Z" fill="white"/>
<path d="M59.7449 8.68468L59.7175 8.54849L59.5836 8.50935C59.4293 8.46474 55.6452 7.37677 52.7004 7.45739C49.7564 7.37677 45.973 8.46474 45.8187 8.50935L45.6841 8.54849L45.6559 8.68468C45.0827 11.5103 45.2526 14.717 45.2542 14.7514C45.5572 19.5479 47.3142 22.1833 48.7361 23.5491C50.2238 24.9791 51.6379 25.3517 51.8086 25.3924C52.1734 25.5215 52.4945 25.5473 52.6487 25.5513C52.6487 25.5513 52.6683 25.552 52.7012 25.552C52.7301 25.552 52.7489 25.552 52.7489 25.552C52.9094 25.5481 53.2305 25.5215 53.5953 25.3931C53.7652 25.3524 55.1801 24.9799 56.6678 23.5499C58.0881 22.184 59.8459 19.5487 60.1473 14.7499C60.1489 14.717 60.3188 11.5103 59.7449 8.68468ZM50.959 7.98807L45.6919 13.2533C45.6966 12.7477 45.7138 12.1427 45.7592 11.4915L48.9914 8.26202C49.6162 8.15087 50.2888 8.05225 50.959 7.98807ZM47.3495 8.59701L45.9017 10.0458C45.9503 9.66854 46.0082 9.28971 46.0818 8.91479C46.2948 8.85531 46.7489 8.73555 47.3495 8.59701ZM59.6877 14.7217C59.3957 19.353 57.7209 21.8858 56.3679 23.1953C54.9068 24.6104 53.492 24.9415 53.4779 24.9454L53.4497 24.9533C53.1295 25.0675 52.8445 25.0863 52.7301 25.0902C52.7278 25.0902 52.7176 25.0902 52.7012 25.0902H52.7004C52.6996 25.0902 52.6973 25.0902 52.6941 25.0902V24.248L51.9808 24.9627C51.9706 24.9595 51.9605 24.9572 51.9526 24.9533L51.9244 24.9454C51.9166 24.9431 51.4476 24.8327 50.775 24.4735L52.6941 22.5543V21.2495L49.9701 23.9741C49.6726 23.7628 49.3594 23.5084 49.0439 23.2039L52.6941 19.5541V18.2502L48.4159 22.5277C48.1771 22.2412 47.9359 21.9156 47.7018 21.5477L52.6941 16.5556V15.2516L47.225 20.7188C47.0418 20.3619 46.8656 19.9705 46.7035 19.5471L52.6941 13.557V12.2515L46.3715 18.5734C46.2455 18.15 46.1319 17.6976 46.0348 17.2154L52.6941 10.5577V9.25292L45.8485 16.0961C45.7921 15.6594 45.7444 15.2039 45.7146 14.7233C45.7146 14.7194 45.7115 14.6544 45.7076 14.5432L52.3379 7.91528C52.4584 7.91528 52.5775 7.91528 52.6941 7.91841H52.7012H52.7082C55.2764 7.84718 58.6135 8.72068 59.3197 8.91479C59.849 11.6449 59.6885 14.6927 59.6877 14.7217Z" fill="white"/>
<path d="M42.623 37.4869C42.623 33.9256 39.5231 31.0288 35.7131 31.0288C31.9024 31.0288 28.8018 33.9256 28.8018 37.4869C28.8018 41.0475 31.9016 43.9451 35.7131 43.9451C39.5231 43.9458 42.623 41.0483 42.623 37.4869ZM35.7124 34.6653C37.139 34.6653 38.2993 35.9317 38.2993 37.4877C38.2993 39.0445 37.139 40.3102 35.7124 40.3102C34.285 40.3102 33.1246 39.0445 33.1246 37.4877C33.1246 35.9317 34.285 34.6653 35.7124 34.6653Z" fill="white"/>
<path d="M35.8828 45.674H34.7506H31.6445V47.2112C31.6445 48.0831 32.4009 49.2916 33.8212 49.2916H34.7498V49.294H46.0546V55.5729H50.285V45.674H35.8828Z" fill="white"/>
<path d="M50.2682 33.1131C50.2682 32.2341 49.5102 31.017 48.0907 31.017L46.0283 31.0178V44.8286H50.2674V33.1131H50.2682Z" fill="white"/>
<path d="M22.5795 36.3221V34.3582L22.5772 34.2315V33.0746C22.5772 32.1956 21.8216 30.9785 20.4012 30.9785L18.3389 30.9801V34.6236H18.3396V44.8332H22.5787V39.9656H26.0082V36.3228H22.5795V36.3221Z" fill="white"/>
<path d="M5.79173 42.3922L5.80112 42.3844C6.21454 42.0079 6.5708 41.6259 6.85893 41.2526C7.11653 40.9324 7.55187 40.3344 7.89482 39.5721C8.76158 40.9708 10.1858 42.1589 10.6634 42.4642C10.7136 42.5057 10.7645 42.5425 10.8146 42.5785C10.8388 42.5957 10.8647 42.6129 10.8921 42.6325C11.2984 42.9291 12.9302 44.0374 13.4783 44.0374C13.4783 44.0374 13.4783 44.0374 13.4791 44.0374C13.5119 44.0374 13.5456 44.0335 13.5746 44.0273C13.851 43.9662 14.1297 43.5999 14.3709 43.1718L15.6644 41.334L15.3206 41.2213C14.183 40.8479 13.3037 40.2194 12.5974 39.7153C11.9334 39.2394 11.3846 38.4606 10.9853 37.8924L10.9281 37.811C10.528 37.2451 10.2493 36.6557 10.0966 36.0609C9.93762 35.4363 9.91413 35.2789 9.86402 34.8547L9.86011 33.1954L9.85932 33.1789C9.81 32.3884 9.32298 31.8436 8.63552 31.7865V31.7771H5.98121V34.3976L5.98356 34.6285V34.8586C5.92953 35.4112 5.91231 35.4691 5.83871 35.74C5.81287 35.8323 5.78155 35.9474 5.74005 36.1094C5.57876 36.7395 5.28749 37.3977 4.87564 38.0646C4.46457 38.7307 3.89221 39.4038 3.17735 40.066C2.09605 40.8729 1.65523 41.1352 0.422811 41.7128L0 41.9085L0.959937 42.5738C2.14772 43.4935 2.87746 43.9607 3.12723 43.9607C3.55396 43.9607 4.74879 43.2571 5.79173 42.3922Z" fill="white"/>
<path d="M4.35352 52.5314C4.35352 53.5645 4.63069 54.348 5.17565 54.8623C5.71434 55.3679 6.39632 55.6254 7.20749 55.6254H22.6244V45.7007L4.35352 45.7022V52.5314ZM8.49706 50.8853V49.3113H18.3133V51.8614H9.34347C9.08273 51.8614 8.88542 51.7902 8.72256 51.6375C8.5738 51.4966 8.49706 51.243 8.49706 50.8853Z" fill="white"/>
<path d="M77.5054 39.0303H73.4824V33.0661C73.4824 32.1855 72.7269 30.9661 71.3065 30.9661L69.2441 30.9668V55.5721H73.4824V42.6981H77.5054V39.0303Z" fill="white"/>
<path d="M57.4337 31.784H54.2188V33.3322C54.2188 34.2112 54.9751 35.4283 56.3947 35.4283H58.457V35.4212H63.1902C62.7235 37.3263 61.5349 39.3739 60.55 40.5605C59.0748 42.3357 56.8785 43.8643 54.5257 44.7535L54.3143 44.8333L54.2532 45.0509C54.1874 45.2826 54.1874 45.2826 54.9446 46.2657C55.2844 46.7055 55.6798 47.2143 55.9084 47.5062C56.0705 47.7152 56.2067 47.7888 56.3586 47.8342C56.4401 47.8585 56.5372 47.8718 56.6319 47.8718C56.7368 47.8718 56.8355 47.8561 56.924 47.8256C59.7294 46.8589 61.8309 45.3679 63.5386 43.1333C65.525 40.5307 66.7574 37.4993 67.1027 34.3646L67.1998 31.7832H58.457H57.4337V31.784Z" fill="white"/>
<path d="M103.364 42.3444H99.628C100.669 38.8214 100.448 31.7856 100.448 31.7856H87.17H83.4579H82.9317V33.337C82.9317 34.2175 83.6865 35.4378 85.1068 35.4378H86.1184L86.1192 35.4385H96.1093C96.1445 38.9419 95.7084 41.0787 95.2582 42.3444H82.1597V42.3452H79.5586V43.8973C79.5586 44.7778 80.315 45.9981 81.7345 45.9981H82.1597V45.9996H90.6558V55.5729H95.0946V45.9988H103.364V42.3444H103.364Z" fill="white"/>
</svg>
