<svg width="257" height="22" viewBox="0 0 257 22" fill="none" xmlns="http://www.w3.org/2000/svg">
<path d="M0.820703 0.666014H10.5207C11.2207 0.666014 11.879 0.816014 12.4957 1.11601C13.1124 1.39935 13.6457 1.79935 14.0957 2.31602C14.5457 2.83268 14.904 3.43268 15.1707 4.11601C15.4374 4.79935 15.5707 5.52435 15.5707 6.29102V16.316C15.5707 17.0993 15.4374 17.8243 15.1707 18.491C14.904 19.1743 14.5457 19.7743 14.0957 20.291C13.6457 20.8077 13.1124 21.2077 12.4957 21.491C11.879 21.791 11.2207 21.941 10.5207 21.941H0.820703V0.666014ZM9.5707 18.016C9.8707 18.016 10.1457 17.9577 10.3957 17.841C10.6624 17.7077 10.8874 17.541 11.0707 17.341C11.2707 17.1243 11.4207 16.8743 11.5207 16.591C11.6374 16.3077 11.6957 15.9993 11.6957 15.666V6.91602C11.6957 6.59935 11.6374 6.29935 11.5207 6.01601C11.4207 5.73268 11.2707 5.48268 11.0707 5.26601C10.8874 5.04935 10.6624 4.88268 10.3957 4.76602C10.1457 4.63268 9.8707 4.56601 9.5707 4.56601H4.7207V18.016H9.5707ZM28.1186 18.691H22.3936L21.6186 21.941H17.8436L23.2936 0.666014H27.3686L32.6186 21.941H28.8686L28.1186 18.691ZM23.1436 15.541H27.3936L25.4186 6.84102H25.2186L23.1436 15.541ZM39.3184 18.341H49.9184V21.941H35.2934V0.666014H49.9184V4.26601H39.3184V9.51602H49.9184V13.066H39.3184V18.341ZM65.4662 15.766C65.4662 16.616 65.2995 17.416 64.9662 18.166C64.6495 18.916 64.2079 19.566 63.6412 20.116C63.0745 20.6827 62.4162 21.1243 61.6662 21.441C60.9329 21.7743 60.1412 21.941 59.2912 21.941H57.7662C56.9662 21.941 56.2245 21.791 55.5412 21.491C54.8579 21.2077 54.2579 20.816 53.7412 20.316C53.2245 19.816 52.8079 19.2243 52.4912 18.541C52.1745 17.8743 51.9829 17.1493 51.9162 16.366H55.7662C55.8995 16.8993 56.1245 17.3493 56.4412 17.716C56.7579 18.066 57.2079 18.241 57.7912 18.241H59.1162C59.4829 18.241 59.8162 18.1743 60.1162 18.041C60.4162 17.891 60.6745 17.691 60.8912 17.441C61.1079 17.191 61.2745 16.9077 61.3912 16.591C61.5245 16.2577 61.5912 15.9077 61.5912 15.541V0.666014H65.4662V15.766ZM72.0332 18.341H82.6332V21.941H68.0082V0.666014H82.6332V4.26601H72.0332V9.51602H82.6332V13.066H72.0332V18.341ZM94.1311 0.666014C94.9811 0.666014 95.7811 0.832681 96.5311 1.16602C97.2811 1.48268 97.9311 1.92435 98.4811 2.49101C99.0477 3.04101 99.4894 3.69935 99.8061 4.46601C100.139 5.21601 100.306 6.01602 100.306 6.86602V15.766C100.306 16.616 100.139 17.416 99.8061 18.166C99.4894 18.916 99.0477 19.566 98.4811 20.116C97.9311 20.6827 97.2811 21.1243 96.5311 21.441C95.7811 21.7743 94.9811 21.941 94.1311 21.941H91.7061C90.8561 21.941 90.0561 21.7743 89.3061 21.441C88.5561 21.1243 87.8977 20.6827 87.3311 20.116C86.7811 19.566 86.3394 18.916 86.0061 18.166C85.6894 17.416 85.5311 16.616 85.5311 15.766V6.86602C85.5311 6.01602 85.6894 5.21601 86.0061 4.46601C86.3394 3.69935 86.7811 3.04101 87.3311 2.49101C87.8977 1.92435 88.5561 1.48268 89.3061 1.16602C90.0561 0.832681 90.8561 0.666014 91.7061 0.666014H94.1311ZM96.4811 7.06601C96.4811 6.31601 96.2644 5.68268 95.8311 5.16601C95.4144 4.63268 94.8394 4.36601 94.1061 4.36601H91.7311C90.9977 4.36601 90.4144 4.63268 89.9811 5.16601C89.5644 5.68268 89.3561 6.31601 89.3561 7.06601V15.541C89.3561 16.291 89.5644 16.9327 89.9811 17.466C90.4144 17.9827 90.9977 18.241 91.7311 18.241H94.1061C94.8394 18.241 95.4144 17.9827 95.8311 17.466C96.2644 16.9327 96.4811 16.291 96.4811 15.541V7.06601ZM107.111 8.01602V21.941H103.311V0.666014H107.111L114.336 14.716V0.666014H118.061V21.941H114.336L107.111 8.01602ZM138.47 18.691H132.745L131.97 21.941H128.195L133.645 0.666014H137.72L142.97 21.941H139.22L138.47 18.691ZM133.495 15.541H137.745L135.77 6.84102H135.57L133.495 15.541ZM154.07 0.666014C154.92 0.666014 155.72 0.832681 156.47 1.16602C157.22 1.48268 157.87 1.92435 158.42 2.49101C158.987 3.04101 159.428 3.69935 159.745 4.46601C160.062 5.21601 160.22 6.01602 160.22 6.86602V15.766C160.22 16.266 160.162 16.7493 160.045 17.216C159.928 17.6827 159.77 18.1243 159.57 18.541L162.27 21.941H158.62L157.67 20.766C157.17 21.1327 156.612 21.416 155.995 21.616C155.395 21.8327 154.753 21.941 154.07 21.941H151.62C150.77 21.941 149.97 21.7743 149.22 21.441C148.47 21.1243 147.812 20.6827 147.245 20.116C146.695 19.566 146.253 18.916 145.92 18.166C145.603 17.416 145.445 16.616 145.445 15.766V6.86602C145.445 6.01602 145.603 5.21601 145.92 4.46601C146.253 3.69935 146.695 3.04101 147.245 2.49101C147.812 1.92435 148.47 1.48268 149.22 1.16602C149.97 0.832681 150.77 0.666014 151.62 0.666014H154.07ZM156.395 14.541V7.06601C156.395 6.69935 156.337 6.35768 156.22 6.04102C156.12 5.70768 155.962 5.41602 155.745 5.16601C155.545 4.91601 155.295 4.72435 154.995 4.59101C154.712 4.44101 154.395 4.36601 154.045 4.36601H151.645C150.912 4.36601 150.328 4.63268 149.895 5.16601C149.478 5.68268 149.27 6.31601 149.27 7.06601V15.541C149.27 16.291 149.478 16.9327 149.895 17.466C150.328 17.9827 150.912 18.241 151.645 18.241H154.045C154.528 18.241 154.953 18.1077 155.32 17.841L151.095 12.566H154.845L156.395 14.541ZM178.853 15.766C178.853 16.616 178.694 17.416 178.378 18.166C178.061 18.916 177.619 19.566 177.053 20.116C176.503 20.6827 175.853 21.1243 175.103 21.441C174.353 21.7743 173.553 21.941 172.703 21.941H170.278C169.428 21.941 168.628 21.7743 167.878 21.441C167.128 21.1243 166.469 20.6827 165.903 20.116C165.336 19.566 164.886 18.916 164.553 18.166C164.236 17.416 164.078 16.616 164.078 15.766V0.666014H167.928V15.541C167.928 15.9077 167.994 16.2577 168.128 16.591C168.261 16.9077 168.444 17.191 168.678 17.441C168.928 17.691 169.211 17.891 169.528 18.041C169.844 18.1743 170.186 18.241 170.553 18.241H172.403C172.769 18.241 173.111 18.1743 173.428 18.041C173.744 17.891 174.019 17.691 174.253 17.441C174.486 17.191 174.669 16.9077 174.803 16.591C174.953 16.2577 175.028 15.9077 175.028 15.541V0.666014H178.853V15.766ZM191.229 18.691H185.504L184.729 21.941H180.954L186.404 0.666014H190.479L195.729 21.941H191.979L191.229 18.691ZM186.254 15.541H190.504L188.529 6.84102H188.329L186.254 15.541ZM202.354 13.341V21.941H198.404V0.666014H207.529C208.329 0.666014 209.079 0.816014 209.779 1.11601C210.495 1.41601 211.112 1.83268 211.629 2.36601C212.145 2.88268 212.554 3.49102 212.854 4.19102C213.154 4.89102 213.304 5.64102 213.304 6.44102V7.36602C213.304 8.16602 213.154 8.91602 212.854 9.61602C212.554 10.316 212.145 10.9327 211.629 11.466C211.112 11.9827 210.495 12.391 209.779 12.691C209.079 12.991 208.329 13.141 207.529 13.141H206.454L213.679 21.941H209.154L202.354 13.341ZM202.354 4.39102V9.41602H206.904C207.804 9.41602 208.454 9.19935 208.854 8.76602C209.27 8.31602 209.479 7.69935 209.479 6.91602C209.479 6.16601 209.27 5.55768 208.854 5.09102C208.437 4.62435 207.787 4.39102 206.904 4.39102H202.354ZM216.104 0.666014H220.054V21.941H216.104V0.666014ZM238.032 15.766C238.032 16.616 237.874 17.416 237.557 18.166C237.241 18.916 236.799 19.566 236.232 20.116C235.682 20.6827 235.032 21.1243 234.282 21.441C233.532 21.7743 232.732 21.941 231.882 21.941H229.457C228.607 21.941 227.807 21.7743 227.057 21.441C226.307 21.1243 225.649 20.6827 225.082 20.116C224.516 19.566 224.066 18.916 223.732 18.166C223.416 17.416 223.257 16.616 223.257 15.766V0.666014H227.107V15.541C227.107 15.9077 227.174 16.2577 227.307 16.591C227.441 16.9077 227.624 17.191 227.857 17.441C228.107 17.691 228.391 17.891 228.707 18.041C229.024 18.1743 229.366 18.241 229.732 18.241H231.582C231.949 18.241 232.291 18.1743 232.607 18.041C232.924 17.891 233.199 17.691 233.432 17.441C233.666 17.191 233.849 16.9077 233.982 16.591C234.132 16.2577 234.207 15.9077 234.207 15.541V0.666014H238.032V15.766ZM248.784 16.041H248.984C249.55 13.4743 250.117 10.916 250.684 8.36602C251.267 5.81602 251.842 3.25768 252.409 0.691014H256.884V21.941H253.809V8.11602H253.609C253.125 10.4327 252.609 12.741 252.059 15.041C251.525 17.341 251.017 19.641 250.534 21.941L247.109 21.966L244.209 8.16602H244.009V21.941H240.909V0.691014H245.384L248.784 16.041Z" fill="white"/>
</svg>
