<svg width="60" height="50" viewBox="0 0 60 50" fill="none" xmlns="http://www.w3.org/2000/svg">
<path d="M50.1221 0.214844H10.1122C5.01075 0.214844 0.875 4.36423 0.875 9.48482V31.4758C0.875 36.5964 5.01075 40.7458 10.1122 40.7458H23.8945L28.5976 48.4035C28.5976 48.4035 28.6495 48.4935 28.7504 48.6217C29.026 49.0937 29.5334 49.4129 30.1172 49.4129C30.6983 49.4129 31.203 49.0964 31.4785 48.6299C31.5958 48.4908 31.6367 48.4008 31.6367 48.4008L36.3399 40.7431H50.1221C55.2236 40.7431 59.3594 36.5937 59.3594 31.4731V9.4821C59.3594 4.36424 55.2236 0.214844 50.1221 0.214844Z" fill="white"/>
<path d="M13.8511 16.3058C13.8511 16.3058 12.2552 16.3058 10.8066 17.7162V12.0391H7.22461V26.9562H10.842V25.7885C10.842 25.7885 11.6959 27.3299 13.8484 27.3299C13.8484 27.3299 18.8953 27.1444 18.8953 21.7619C18.898 21.7619 18.7125 16.3058 13.8511 16.3058ZM13.0627 24.179C11.7914 24.179 10.7602 23.1478 10.7602 21.8765C10.7602 20.6052 11.7914 19.5767 13.0627 19.5767C14.334 19.5767 15.3624 20.6079 15.3624 21.8765C15.3624 23.1505 14.334 24.179 13.0627 24.179Z" fill="#3D3D3D"/>
<path d="M20.0449 11.7109V15.1619C20.0449 15.1619 21.679 15.0883 21.679 18.1301V26.9609H25.13V17.3144C25.13 17.3171 25.2774 11.7109 20.0449 11.7109Z" fill="#3D3D3D"/>
<path d="M33.5682 16.3516C33.5682 16.3516 27.6511 16.3516 27.6511 21.8759C27.6511 21.8759 27.4601 27.3266 33.5682 27.3266C33.5682 27.3266 39.6218 27.3184 39.6218 21.8759C39.6191 21.8786 39.8155 16.3516 33.5682 16.3516ZM33.5682 24.1784C32.297 24.1784 31.2657 23.1472 31.2657 21.8759C31.2657 20.6046 32.297 19.5761 33.5682 19.5761C34.8395 19.5761 35.868 20.6074 35.868 21.8759C35.868 23.1499 34.8395 24.1784 33.5682 24.1784Z" fill="#3D3D3D"/>
<path d="M49.5072 16.7154V17.7166C49.5072 17.7166 48.4787 16.3526 46.5036 16.3526C46.5036 16.3526 41.4375 16.1398 41.4375 21.8387C41.4375 21.8387 41.3802 27.1503 46.3644 27.1503C46.3644 27.1503 48.3968 27.2321 49.5072 25.7863V26.6211C49.5072 26.6211 49.7581 29.2373 47.2265 29.2373H46.3644V32.41H47.7557C47.7557 32.41 52.9882 32.4673 52.9882 26.8175V16.7154H49.5072ZM47.3656 24.1794C46.0943 24.1794 45.0659 23.1482 45.0659 21.8769C45.0659 20.6057 46.0943 19.5772 47.3656 19.5772C48.6369 19.5772 49.6654 20.6084 49.6654 21.8769C49.6681 23.1509 48.6369 24.1794 47.3656 24.1794Z" fill="#3D3D3D"/>
</svg>
