<svg width="42" height="28" viewBox="0 0 42 28" fill="none" xmlns="http://www.w3.org/2000/svg">
<path d="M9.10225 0H15.712L5.10579 10.2919V27.9945H0V8.30541L9.10225 0Z" fill="#014099"/>
<path d="M17.0988 0L6.04102 10.9518V27.9945H10.4641V12.852L23.1362 0H17.0988Z" fill="#014099"/>
<path d="M24.4057 0L11.3994 13.1836V27.9945H16.0785V14.7556L31.0475 0H24.4057Z" fill="#014099"/>
<path d="M25.3516 7.72845L22.0059 10.8689L26.5428 15.3325V27.9945H31.0512V13.1007L25.3516 7.72845Z" fill="#014099"/>
<path d="M25.9023 7.10656L32.025 13.0592V27.9945H36.409V11.0347L29.1344 3.96613L25.9023 7.10656Z" fill="#014099"/>
<path d="M29.7744 3.34791L37.1309 10.496V27.9947H41.8527V8.72017L33.0455 0.166016L29.7744 3.34791Z" fill="#014099"/>
</svg>
