<svg width="163" height="29" viewBox="0 0 163 29" fill="none" xmlns="http://www.w3.org/2000/svg">
<path d="M9.10225 0H15.712L5.10579 10.2919V27.9945H0V8.30541L9.10225 0Z" fill="#014099"/>
<path d="M17.0988 0L6.04102 10.9518V27.9945H10.4641V12.852L23.1362 0H17.0988Z" fill="#014099"/>
<path d="M24.4057 0L11.3994 13.1836V27.9945H16.0785V14.7556L31.0475 0H24.4057Z" fill="#014099"/>
<path d="M25.3516 7.72845L22.0059 10.8689L26.5428 15.3325V27.9945H31.0512V13.1007L25.3516 7.72845Z" fill="#014099"/>
<path d="M25.9023 7.10656L32.025 13.0592V27.9945H36.409V11.0347L29.1344 3.96613L25.9023 7.10656Z" fill="#014099"/>
<path d="M29.7744 3.34791L37.1309 10.496V27.9947H41.8527V8.72017L33.0455 0.166016L29.7744 3.34791Z" fill="#014099"/>
<path d="M126.46 5.65898C126.46 7.04091 126.46 8.42284 126.46 9.80477C126.432 9.80477 126.403 9.80477 126.375 9.80477C126.375 10.5234 126.375 11.242 126.375 11.9606C126.347 11.9606 126.318 11.9606 126.29 11.9606C126.261 13.0938 126.233 14.227 126.204 15.3601C126.176 15.3601 126.147 15.3601 126.119 15.3601C126.119 15.7747 126.119 16.1893 126.119 16.6039C126.091 16.6039 126.062 16.6039 126.034 16.6039C126.034 16.9079 126.034 17.2119 126.034 17.5159C126.005 17.5159 125.977 17.5159 125.948 17.5159C125.842 17.8822 125.913 18.6319 125.948 18.8426C127.445 18.7839 127.15 18.967 132.092 18.7597C132.124 18.5939 132.121 18.2035 132.178 18.0134C132.206 18.0134 132.235 18.0134 132.263 18.0134C132.263 17.82 132.263 17.6265 132.263 17.433C132.292 17.433 132.32 17.433 132.348 17.433C132.348 17.1843 132.348 16.9355 132.348 16.6868C132.377 16.6868 132.405 16.6868 132.434 16.6868C132.434 16.4104 132.434 16.134 132.434 15.8576C132.462 15.8576 132.491 15.8576 132.519 15.8576C132.519 15.4431 132.519 15.0285 132.519 14.6139C132.548 14.6139 132.576 14.6139 132.604 14.6139C132.604 14.3375 132.604 14.0611 132.604 13.7847C132.633 13.232 132.661 12.6792 132.69 12.1264C132.718 12.1264 132.747 12.1264 132.775 12.1264C132.956 11.4976 132.516 9.78404 132.86 9.39019C132.796 7.98062 132.992 8.61976 132.775 2.674C126.283 2.73965 117.817 2.53927 108.626 2.75692C108.654 2.92275 108.683 3.08858 108.711 3.25442C108.683 3.25442 108.654 3.25442 108.626 3.25442C108.619 4.03866 108.519 5.1373 108.796 5.65898C114.684 5.65898 120.572 5.65898 126.46 5.65898Z" fill="white"/>
<path d="M80.6362 5.90775C80.5046 6.17377 80.3197 6.36724 80.1242 6.57108C80.0673 6.59872 80.0104 6.62636 79.9535 6.654C79.9535 6.70927 79.9535 6.76455 79.9535 6.81983C79.8966 6.84747 79.8397 6.8751 79.7829 6.90274C79.7829 6.95802 79.7829 7.0133 79.7829 7.06857C79.7544 7.06857 79.726 7.06857 79.6975 7.06857C79.6975 7.15149 79.6975 7.23441 79.6975 7.31732C79.6691 7.31732 79.6406 7.31732 79.6122 7.31732C79.6122 7.3726 79.6122 7.42788 79.6122 7.48315C79.5837 7.48315 79.5553 7.48315 79.5269 7.48315C79.5269 7.70426 79.5269 7.92537 79.5269 8.14648C79.4984 8.14648 79.47 8.14648 79.4415 8.14648C79.4415 8.25704 79.4415 8.36759 79.4415 8.47815C79.47 8.47815 79.4984 8.47815 79.5269 8.47815C79.5269 8.78217 79.5269 9.08619 79.5269 9.39022C79.5553 9.39022 79.5837 9.39022 79.6122 9.39022C79.6122 9.4455 79.6122 9.50077 79.6122 9.55605C79.6406 9.55605 79.6691 9.55605 79.6975 9.55605C79.6975 9.63897 79.6975 9.72188 79.6975 9.8048C79.726 9.8048 79.7544 9.8048 79.7829 9.8048C79.8113 9.91535 79.8397 10.0259 79.8682 10.1365C79.8966 10.1365 79.9251 10.1365 79.9535 10.1365C79.9535 10.1917 79.9535 10.247 79.9535 10.3023C80.0104 10.3299 80.0673 10.3576 80.1242 10.3852C80.1242 10.4405 80.1242 10.4958 80.1242 10.551C80.2664 10.6616 80.4086 10.7722 80.5509 10.8827C80.5793 10.938 80.6077 10.9933 80.6362 11.0485C80.6931 11.0485 80.75 11.0485 80.8069 11.0485C80.8637 11.1315 80.9206 11.2144 80.9775 11.2973C81.0913 11.3249 81.2051 11.3526 81.3189 11.3802C81.3189 11.4078 81.3189 11.4355 81.3189 11.4631C81.4895 11.5184 81.6602 11.5737 81.8309 11.6289C81.8309 11.6566 81.8309 11.6842 81.8309 11.7119C82.0015 11.7395 82.1722 11.7671 82.3429 11.7948C82.3429 11.8224 82.3429 11.8501 82.3429 11.8777C82.3997 11.8777 82.4566 11.8777 82.5135 11.8777C82.5135 11.9053 82.5135 11.933 82.5135 11.9606C82.8264 12.0159 83.1393 12.0712 83.4522 12.1264C83.4522 12.1541 83.4522 12.1817 83.4522 12.2094C83.5375 12.2094 83.6229 12.2094 83.7082 12.2094C83.7082 12.237 83.7082 12.2646 83.7082 12.2923C84.2771 12.3476 84.846 12.4028 85.4149 12.4581C86.3998 12.731 87.758 12.7069 88.9989 12.7069C89.5678 12.7069 90.1367 12.7069 90.7055 12.7069C90.7055 12.7345 90.7055 12.7621 90.7055 12.7898C91.0753 12.7898 91.4451 12.7898 91.8149 12.7898C91.8149 12.7621 91.8149 12.7345 91.8149 12.7069C92.4691 12.7069 93.1233 12.7069 93.7776 12.7069C96.4833 12.7069 98.8407 12.3717 100.69 11.546C100.775 11.546 100.86 11.546 100.946 11.546C100.974 11.4908 101.002 11.4355 101.031 11.3802C101.145 11.3526 101.258 11.3249 101.372 11.2973C101.401 11.242 101.429 11.1867 101.458 11.1315C101.514 11.1315 101.571 11.1315 101.628 11.1315C101.714 11.0209 101.799 10.9103 101.884 10.7998C102.186 10.5096 102.467 10.3023 102.652 9.88771C102.681 9.69424 102.709 9.50077 102.738 9.3073C102.766 9.3073 102.794 9.3073 102.823 9.3073C102.823 9.14147 102.823 8.97564 102.823 8.80981C102.851 8.80981 102.88 8.80981 102.908 8.80981C102.986 8.54379 102.866 8.1223 102.823 7.98065C102.823 7.84246 102.823 7.70426 102.823 7.56607C102.794 7.56607 102.766 7.56607 102.738 7.56607C102.738 7.48315 102.738 7.40024 102.738 7.31732C102.709 7.31732 102.681 7.31732 102.652 7.31732C102.595 7.15149 102.538 6.98566 102.482 6.81983C102.425 6.79219 102.368 6.76455 102.311 6.73691C102.311 6.68163 102.311 6.62636 102.311 6.57108C102.254 6.54344 102.197 6.5158 102.14 6.48816C101.998 6.32233 101.856 6.1565 101.714 5.99067C101.714 5.96303 101.714 5.93539 101.714 5.90775C102.446 5.91121 103.523 6.03213 104.103 5.82484C104.106 5.0095 104.259 3.55501 104.018 2.92278C102.531 2.85368 102.051 3.06443 94.2896 2.83986C94.2896 2.1489 94.2896 1.45793 94.2896 0.766968C92.1562 0.766968 90.0229 0.766968 87.8895 0.766968C87.8931 1.43375 88.0033 2.4011 87.8042 2.92278C86.3571 2.99188 85.8913 2.78113 78.3322 3.0057C78.3286 3.82104 78.1757 5.27552 78.4175 5.90775C79.1571 5.90775 79.8966 5.90775 80.6362 5.90775ZM85.6709 7.56607C85.7278 7.53843 85.7846 7.51079 85.8415 7.48315C85.8415 7.42788 85.8415 7.3726 85.8415 7.31732C85.8984 7.28968 85.9553 7.26205 86.0122 7.23441C86.126 7.09621 86.2398 6.95802 86.3535 6.81983C86.4673 6.79219 86.5811 6.76455 86.6949 6.73691C86.6949 6.70927 86.6949 6.68163 86.6949 6.654C86.8086 6.654 86.9224 6.654 87.0362 6.654C87.0362 6.62636 87.0362 6.59872 87.0362 6.57108C87.1215 6.57108 87.2069 6.57108 87.2922 6.57108C87.2922 6.54344 87.2922 6.5158 87.2922 6.48816C87.4629 6.48816 87.6335 6.48816 87.8042 6.48816C87.8042 6.46053 87.8042 6.43289 87.8042 6.40525C88.0318 6.40525 88.2593 6.40525 88.4869 6.40525C89.2833 6.18414 92.0389 6.0874 92.9242 6.32233C93.2371 6.32233 93.55 6.32233 93.8629 6.32233C93.8629 6.34997 93.8629 6.37761 93.8629 6.40525C94.1189 6.40525 94.3749 6.40525 94.6309 6.40525C95.3989 6.61599 96.4016 6.80601 96.5936 7.56607C96.7287 7.70772 96.782 8.3054 96.6789 8.56106C96.6505 8.56106 96.622 8.56106 96.5936 8.56106C96.5936 8.61634 96.5936 8.67162 96.5936 8.72689C96.5651 8.72689 96.5367 8.72689 96.5082 8.72689C96.4087 8.85472 96.3945 8.87199 96.3376 9.05856C96.1456 9.11038 96.1242 9.12765 95.9962 9.22439C95.9962 9.25203 95.9962 9.27967 95.9962 9.3073C95.8824 9.33494 95.7687 9.36258 95.6549 9.39022C95.6549 9.41786 95.6549 9.4455 95.6549 9.47314C95.5696 9.47314 95.4842 9.47314 95.3989 9.47314C95.3989 9.50077 95.3989 9.52841 95.3989 9.55605C95.2851 9.55605 95.1713 9.55605 95.0576 9.55605C95.0576 9.58369 95.0576 9.61133 95.0576 9.63897C94.9438 9.63897 94.83 9.63897 94.7162 9.63897C94.7162 9.66661 94.7162 9.69424 94.7162 9.72188C94.2327 9.74952 93.7491 9.77716 93.2656 9.8048C91.438 9.92917 91.8789 9.93954 88.2309 9.72188C88.0602 9.72188 87.8895 9.72188 87.7189 9.72188C87.7189 9.69424 87.7189 9.66661 87.7189 9.63897C87.5767 9.63897 87.4344 9.63897 87.2922 9.63897C86.734 9.46623 85.9055 9.11383 85.7562 8.56106C85.7278 8.56106 85.6993 8.56106 85.6709 8.56106C85.6709 8.2294 85.6709 7.89773 85.6709 7.56607Z" fill="white"/>
<path d="M162.3 10.3023C162.329 10.3023 162.357 10.3023 162.386 10.3023C162.386 10.2746 162.386 10.247 162.386 10.2193C162.364 10.1848 162.265 10.1537 162.215 10.0535C156.156 10.0535 150.098 10.0535 144.039 10.0535C144.035 9.52147 143.971 8.7925 144.124 8.3952C151.986 8.46775 151.307 8.25009 162.215 8.47811C162.215 8.45047 162.215 8.42284 162.215 8.3952C162.243 8.3952 162.272 8.3952 162.3 8.3952C162.24 6.98563 162.432 8.49884 162.215 2.674C155.001 2.7431 147.114 2.53235 137.81 2.75692C137.81 3.58608 137.81 4.41524 137.81 5.24439C145.778 5.31695 145.056 5.09929 156.071 5.32731C156.071 5.88354 156.107 6.58141 156.071 6.90271C149.984 6.90271 143.897 6.90271 137.81 6.90271C137.81 8.80978 137.81 10.7168 137.81 12.6239C145.973 12.6239 154.137 12.6239 162.3 12.6239C162.396 12.0677 162.194 11.09 162.3 10.3023Z" fill="white"/>
<path d="M55.7191 5.65898C56.6329 5.65898 57.9911 5.51042 58.6204 5.82481C58.624 6.53996 58.4924 7.38294 58.1938 7.81479C58.1084 7.87007 58.0231 7.92534 57.9378 7.98062C57.8524 8.09118 57.7671 8.20173 57.6818 8.31228C57.6249 8.31228 57.568 8.31228 57.5111 8.31228C57.4826 8.36756 57.4542 8.42284 57.4258 8.47812C57.312 8.50576 57.1982 8.53339 57.0844 8.56103C57.0844 8.58867 57.0844 8.61631 57.0844 8.64395C56.9138 8.69923 56.7431 8.7545 56.5724 8.80978C56.5724 8.83742 56.5724 8.86506 56.5724 8.8927C56.4018 8.92033 56.2311 8.94797 56.0604 8.97561C56.0604 9.00325 56.0604 9.03089 56.0604 9.05853C55.8613 9.08617 55.6622 9.1138 55.4631 9.14144C55.4631 9.16908 55.4631 9.19672 55.4631 9.22436C54.6951 9.33491 53.9271 9.44547 53.1591 9.55602C52.2489 9.55602 51.3386 9.55602 50.4284 9.55602C50.1084 9.55602 49.5857 9.49038 49.4044 9.63894C49.3191 9.66658 49.2337 9.69422 49.1484 9.72185C49.1591 10.475 49.0773 11.774 49.2337 12.6239C50.1226 12.6101 51.3102 12.7448 52.0497 12.541C52.7609 12.541 53.472 12.541 54.1831 12.541C54.1831 12.5134 54.1831 12.4857 54.1831 12.4581C54.5244 12.4581 54.8658 12.4581 55.2071 12.4581C55.2071 12.4304 55.2071 12.4028 55.2071 12.3752C55.4062 12.3752 55.6053 12.3752 55.8044 12.3752C55.8044 12.3475 55.8044 12.3199 55.8044 12.2922C56.4586 12.2093 57.1129 12.1264 57.7671 12.0435C57.7671 12.0159 57.7671 11.9882 57.7671 11.9606C57.8809 11.9606 57.9946 11.9606 58.1084 11.9606C58.1084 11.9329 58.1084 11.9053 58.1084 11.8777C58.2222 11.8777 58.336 11.8777 58.4498 11.8777C58.4498 11.85 58.4498 11.8224 58.4498 11.7948C58.5635 11.7948 58.6773 11.7948 58.7911 11.7948C58.7911 11.7671 58.7911 11.7395 58.7911 11.7118C58.8764 11.7118 58.9618 11.7118 59.0471 11.7118C59.0471 11.6842 59.0471 11.6566 59.0471 11.6289C59.2462 11.6013 59.4453 11.5736 59.6444 11.546C59.6444 11.5184 59.6444 11.4907 59.6444 11.4631C59.7013 11.4631 59.7582 11.4631 59.8151 11.4631C59.8151 11.4354 59.8151 11.4078 59.8151 11.3802C59.9858 11.3525 60.1564 11.3249 60.3271 11.2973C60.3271 11.2696 60.3271 11.242 60.3271 11.2143C60.4978 11.1591 60.6684 11.1038 60.8391 11.0485C60.8391 11.0209 60.8391 10.9932 60.8391 10.9656C60.896 10.9656 60.9529 10.9656 61.0098 10.9656C61.0098 10.938 61.0098 10.9103 61.0098 10.8827C61.0667 10.8827 61.1235 10.8827 61.1804 10.8827C61.1804 10.855 61.1804 10.8274 61.1804 10.7998C61.3973 10.6823 61.5929 10.5994 61.8631 10.551C62.0871 10.8067 62.56 10.8792 62.8871 11.0485C62.8871 11.0761 62.8871 11.1038 62.8871 11.1314C63.0578 11.1867 63.2284 11.242 63.3991 11.2973C63.3991 11.3249 63.3991 11.3525 63.3991 11.3802C63.4844 11.3802 63.5698 11.3802 63.6551 11.3802C63.6551 11.4078 63.6551 11.4354 63.6551 11.4631C63.712 11.4631 63.7689 11.4631 63.8258 11.4631C63.8258 11.4907 63.8258 11.5184 63.8258 11.546C64.0533 11.5736 64.2809 11.6013 64.5084 11.6289C64.5084 11.6566 64.5084 11.6842 64.5084 11.7118C64.5653 11.7118 64.6222 11.7118 64.6791 11.7118C64.6791 11.7395 64.6791 11.7671 64.6791 11.7948C64.8213 11.7948 64.9636 11.7948 65.1058 11.7948C65.1058 11.8224 65.1058 11.85 65.1058 11.8777C65.1911 11.8777 65.2764 11.8777 65.3618 11.8777C65.3618 11.9053 65.3618 11.9329 65.3618 11.9606C65.4756 11.9606 65.5893 11.9606 65.7031 11.9606C65.7031 11.9882 65.7031 12.0159 65.7031 12.0435C65.8453 12.0435 65.9876 12.0435 66.1298 12.0435C66.1298 12.0711 66.1298 12.0988 66.1298 12.1264C66.272 12.1264 66.4142 12.1264 66.5564 12.1264C66.5564 12.1541 66.5564 12.1817 66.5564 12.2093C66.7271 12.2093 66.8978 12.2093 67.0684 12.2093C67.0684 12.237 67.0684 12.2646 67.0684 12.2922C67.2676 12.2922 67.4667 12.2922 67.6658 12.2922C67.6658 12.3199 67.6658 12.3475 67.6658 12.3752C67.8933 12.3752 68.1209 12.3752 68.3485 12.3752C68.3485 12.4028 68.3485 12.4304 68.3485 12.4581C69.088 12.4857 69.8276 12.5134 70.5671 12.541C70.8729 12.541 71.3351 12.4857 71.5058 12.6239C72.3058 12.6274 73.7031 12.7621 74.3218 12.541C74.3218 11.5736 74.3218 10.6063 74.3218 9.63894C73.5111 9.49729 72.3698 9.55602 71.4205 9.55602C71.0222 9.55602 70.624 9.55602 70.2258 9.55602C70.2258 9.52838 70.2258 9.50075 70.2258 9.47311C69.9413 9.47311 69.6569 9.47311 69.3725 9.47311C69.3725 9.44547 69.3725 9.41783 69.3725 9.39019C69.1733 9.39019 68.9742 9.39019 68.7751 9.39019C68.7751 9.36255 68.7751 9.33491 68.7751 9.30728C68.6329 9.30728 68.4907 9.30728 68.3485 9.30728C68.3485 9.27964 68.3485 9.252 68.3485 9.22436C68.2347 9.22436 68.1209 9.22436 68.0071 9.22436C68.0071 9.19672 68.0071 9.16908 68.0071 9.14144C67.8933 9.14144 67.7796 9.14144 67.6658 9.14144C67.6658 9.1138 67.6658 9.08617 67.6658 9.05853C67.5804 9.05853 67.4951 9.05853 67.4098 9.05853C67.4098 9.03089 67.4098 9.00325 67.4098 8.97561C67.2676 8.94797 67.1253 8.92033 66.9831 8.8927C66.9831 8.86506 66.9831 8.83742 66.9831 8.80978C66.9262 8.80978 66.8693 8.80978 66.8124 8.80978C66.8124 8.78214 66.8124 8.7545 66.8124 8.72686C66.6702 8.69923 66.528 8.67159 66.3858 8.64395C66.3573 8.58867 66.3289 8.53339 66.3004 8.47812C66.1867 8.45048 66.0729 8.42284 65.9591 8.3952C65.9307 8.33992 65.9022 8.28465 65.8738 8.22937C65.6747 8.06354 65.4756 7.8977 65.2764 7.73187C65.248 7.62132 65.2196 7.51076 65.1911 7.40021C65.1627 7.40021 65.1342 7.40021 65.1058 7.40021C65.0347 7.26547 65.0916 6.93381 65.0204 6.8198C64.992 6.8198 64.9636 6.8198 64.9351 6.8198C64.9316 6.41904 64.9138 5.93536 65.0204 5.65898C68.0924 5.65898 71.1645 5.65898 74.2365 5.65898C74.2862 5.49314 74.2258 5.58642 74.3218 5.49314C74.3254 4.69853 74.4711 3.29242 74.2365 2.674C65.9413 2.73965 59.6373 2.53927 49.1484 2.75692C49.1484 3.707 49.0844 4.84364 49.2337 5.65898C51.3955 5.65898 53.5573 5.65898 55.7191 5.65898Z" fill="white"/>
<path d="M104.103 14.1165C95.513 14.1165 86.9228 14.1165 78.3325 14.1165C78.297 14.2236 78.2045 14.2616 78.2472 14.4481C78.2756 14.4481 78.3041 14.4481 78.3325 14.4481C78.3325 14.5587 78.3325 14.6692 78.3325 14.7798C78.3041 14.7798 78.2756 14.7798 78.2472 14.7798C78.2472 14.8074 78.2472 14.8351 78.2472 14.8627C78.2578 14.9145 78.3965 14.8454 78.3325 14.9456C78.3041 14.9456 78.2756 14.9456 78.2472 14.9456C78.2401 15.6711 78.1654 16.6281 78.4178 17.1014C85.049 16.9252 94.8374 17.2707 103.933 17.0185C104.018 16.9909 104.103 16.9632 104.189 16.9356C104.189 16.2861 104.189 16.9874 104.189 14.531C104.167 14.417 104.103 14.5656 104.103 14.4481C104.132 14.4481 104.16 14.4481 104.189 14.4481C104.167 14.2546 104.153 14.2443 104.103 14.1165Z" fill="white"/>
<path d="M130.897 24.9784C125.184 24.9784 115.704 24.9784 107.687 24.9784C107.683 25.7937 107.53 27.2482 107.772 27.8804C116.362 27.8804 124.953 27.8804 133.543 27.8804C133.543 26.9131 133.543 25.9457 133.543 24.9784C132.899 24.8747 131.79 24.9784 130.897 24.9784Z" fill="white"/>
<path d="M140.37 13.7848C139.339 13.7848 138.105 13.8574 137.212 13.7019C137.212 13.7848 137.212 13.8677 137.212 13.9507C137.184 13.9507 137.156 13.9507 137.127 13.9507C137.124 14.728 136.985 16.0857 137.212 16.6869C138.699 16.8147 139.228 16.4243 146.94 16.8527C146.891 17.0185 146.951 16.9253 146.855 17.0185C146.852 17.5506 146.788 18.2796 146.94 18.6769C148.373 18.6181 147.943 18.8012 153.34 18.5939C153.34 18.4834 153.34 18.3728 153.34 18.2623C153.312 18.2623 153.284 18.2623 153.255 18.2623C153.252 17.751 153.198 17.0635 153.34 16.6869C156.555 16.6869 159.769 16.6869 162.983 16.6869C162.983 15.7195 162.983 14.7522 162.983 13.7848C156.455 13.7848 148.992 13.7848 140.37 13.7848Z" fill="white"/>
<path d="M160.082 18.0964C158.716 18.0964 157.351 18.0964 155.986 18.0964C155.986 18.6388 155.979 19.2503 155.9 19.6718C155.701 19.6718 155.502 19.6718 155.303 19.6718C155.303 19.6442 155.303 19.6165 155.303 19.5889C152.828 19.6165 150.354 19.6442 147.879 19.6718C147.168 19.6718 146.457 19.6718 145.746 19.6718C145.419 19.6718 145.088 19.5958 144.978 19.6718C144.569 19.6753 144.437 19.6234 144.21 19.506C144.21 19.0361 144.21 18.5663 144.21 18.0964C142.777 18.1551 143.207 17.972 137.81 18.1793C137.881 19.6614 137.664 20.1382 137.895 27.8805C137.952 27.9081 138.009 27.9358 138.066 27.9634C138.066 27.9358 138.066 27.9081 138.066 27.8805C138.322 27.8805 138.578 27.8805 138.834 27.8805C138.834 27.9081 138.834 27.9358 138.834 27.9634C139.346 27.9634 139.858 27.9634 140.37 27.9634C140.37 27.9358 140.37 27.9081 140.37 27.8805C145.34 27.8805 152.53 27.8805 160.338 27.8805C160.761 27.8805 161.71 27.7527 161.959 27.9634C162.162 27.9427 162.169 27.9288 162.3 27.8805C162.35 27.7146 162.29 27.8079 162.386 27.7146C162.251 26.2049 162.659 25.6314 162.215 18.0135C161.657 18.1517 160.775 18.0964 160.082 18.0964ZM155.9 24.9784C154.14 24.9231 153.991 25.0959 144.21 24.8955C144.21 24.1493 144.21 23.403 144.21 22.6568C148.107 22.6568 152.003 22.6568 155.9 22.6568C155.9 22.6844 155.9 22.7121 155.9 22.7397C155.929 22.7397 155.957 22.7397 155.986 22.7397C155.989 23.4307 156.107 24.4395 155.9 24.9784Z" fill="white"/>
<path d="M103.505 21.9934C103.477 21.9934 103.448 21.9934 103.42 21.9934C103.42 21.9381 103.42 21.8829 103.42 21.8276C103.391 21.8276 103.363 21.8276 103.334 21.8276C103.334 21.717 103.334 21.6065 103.334 21.4959C103.306 21.4959 103.278 21.4959 103.249 21.4959C103.221 21.3854 103.192 21.2748 103.164 21.1643C103.107 21.1366 103.05 21.109 102.993 21.0813C102.993 21.0261 102.993 20.9708 102.993 20.9155C102.822 20.7773 102.652 20.6391 102.481 20.5009C102.424 20.418 102.367 20.3351 102.31 20.2522C102.254 20.2522 102.197 20.2522 102.14 20.2522C102.111 20.1969 102.083 20.1416 102.054 20.0864C101.969 20.0587 101.884 20.0311 101.798 20.0034C101.798 19.9758 101.798 19.9482 101.798 19.9205C101.742 19.9205 101.685 19.9205 101.628 19.9205C101.599 19.8652 101.571 19.81 101.542 19.7547C100.917 19.5336 100.291 19.3125 99.6651 19.0914C99.5513 19.0914 99.4376 19.0914 99.3238 19.0914C99.3238 19.0637 99.3238 19.0361 99.3238 19.0085C99.21 19.0085 99.0962 19.0085 98.9824 19.0085C98.9824 18.9808 98.9824 18.9532 98.9824 18.9255C98.8687 18.9255 98.7549 18.9255 98.6411 18.9255C98.6411 18.8979 98.6411 18.8703 98.6411 18.8426C98.4989 18.8426 98.3567 18.8426 98.2144 18.8426C98.2144 18.815 98.2144 18.7873 98.2144 18.7597C98.0153 18.7597 97.8162 18.7597 97.6171 18.7597C97.6171 18.7321 97.6171 18.7044 97.6171 18.6768C97.3611 18.6768 97.1051 18.6768 96.8491 18.6768C96.8491 18.6491 96.8491 18.6215 96.8491 18.5939C96.5362 18.5939 96.2233 18.5939 95.9104 18.5939C95.9104 18.5662 95.9104 18.5386 95.9104 18.511C95.4553 18.511 95.0002 18.511 94.5451 18.511C93.9975 18.3589 94.0758 18.473 87.8891 18.428C87.6971 18.5904 87.1175 18.504 86.7797 18.511C86.0971 18.5662 85.4144 18.6215 84.7317 18.6768C84.7317 18.7044 84.7317 18.7321 84.7317 18.7597C84.4188 18.7873 84.106 18.815 83.7931 18.8426C83.7931 18.8703 83.7931 18.8979 83.7931 18.9255C83.6508 18.9255 83.5086 18.9255 83.3664 18.9255C83.3664 18.9532 83.3664 18.9808 83.3664 19.0085C83.2526 19.0085 83.1388 19.0085 83.0251 19.0085C83.0251 19.0361 83.0251 19.0637 83.0251 19.0914C82.9113 19.0914 82.7975 19.0914 82.6837 19.0914C82.6837 19.119 82.6837 19.1466 82.6837 19.1743C82.5984 19.1743 82.5131 19.1743 82.4277 19.1743C82.4277 19.2019 82.4277 19.2296 82.4277 19.2572C82.2286 19.2848 82.0295 19.3125 81.8304 19.3401C81.8304 19.3678 81.8304 19.3954 81.8304 19.423C81.7735 19.423 81.7166 19.423 81.6597 19.423C81.6597 19.4507 81.6597 19.4783 81.6597 19.5059C81.5744 19.5059 81.4891 19.5059 81.4037 19.5059C81.4037 19.5336 81.4037 19.5612 81.4037 19.5889C81.2331 19.6441 81.0624 19.6994 80.8917 19.7547C80.8917 19.7823 80.8917 19.81 80.8917 19.8376C80.7779 19.8652 80.6642 19.8929 80.5504 19.9205C80.4935 20.0034 80.4366 20.0864 80.3797 20.1693C80.3228 20.1693 80.2659 20.1693 80.2091 20.1693C80.0668 20.3351 79.9246 20.5009 79.7824 20.6668C79.6686 20.7497 79.5548 20.8326 79.4411 20.9155C79.4411 20.9708 79.4411 21.0261 79.4411 21.0813C79.3842 21.109 79.3273 21.1366 79.2704 21.1643C79.2419 21.2748 79.2135 21.3854 79.1851 21.4959C78.9824 21.8656 78.545 23.0921 78.7584 23.8176C78.7868 23.8176 78.8153 23.8176 78.8437 23.8176C78.8437 23.9558 78.8437 24.094 78.8437 24.2322C78.8722 24.2322 78.9006 24.2322 78.9291 24.2322C78.9291 24.3427 78.9291 24.4533 78.9291 24.5638C78.9575 24.5638 78.9859 24.5638 79.0144 24.5638C79.0144 24.6467 79.0144 24.7296 79.0144 24.8126C79.0428 24.8126 79.0713 24.8126 79.0997 24.8126C79.1282 24.9231 79.1566 25.0337 79.1851 25.1442C79.2135 25.1442 79.2419 25.1442 79.2704 25.1442C79.2704 25.1995 79.2704 25.2548 79.2704 25.3101C79.3557 25.3653 79.4411 25.4206 79.5264 25.4759C79.5264 25.5312 79.5264 25.5864 79.5264 25.6417C79.5833 25.6694 79.6402 25.697 79.6971 25.7246C79.8393 25.8905 79.9815 26.0563 80.1237 26.2221C80.1806 26.2221 80.2375 26.2221 80.2944 26.2221C80.3513 26.305 80.4082 26.388 80.4651 26.4709C80.5219 26.4709 80.5788 26.4709 80.6357 26.4709C80.6642 26.5262 80.6926 26.5814 80.7211 26.6367C80.9771 26.7196 81.2331 26.8025 81.4891 26.8855C81.4891 26.9131 81.4891 26.9407 81.4891 26.9684C81.5459 26.9684 81.6028 26.9684 81.6597 26.9684C81.6597 26.996 81.6597 27.0237 81.6597 27.0513C81.8304 27.0789 82.0011 27.1066 82.1717 27.1342C82.1717 27.1618 82.1717 27.1895 82.1717 27.2171C82.2571 27.2171 82.3424 27.2171 82.4277 27.2171C82.4277 27.2448 82.4277 27.2724 82.4277 27.3C82.5131 27.3 82.5984 27.3 82.6837 27.3C82.6837 27.3277 82.6837 27.3553 82.6837 27.383C82.8828 27.4106 83.082 27.4382 83.2811 27.4659C83.2811 27.4935 83.2811 27.5211 83.2811 27.5488C83.4517 27.5488 83.6224 27.5488 83.7931 27.5488C83.7931 27.5764 83.7931 27.6041 83.7931 27.6317C83.9353 27.6317 84.0775 27.6317 84.2197 27.6317C84.2197 27.6593 84.2197 27.687 84.2197 27.7146C84.362 27.7146 84.5042 27.7146 84.6464 27.7146C84.6464 27.7423 84.6464 27.7699 84.6464 27.7975C85.642 27.8528 86.6375 27.9081 87.6331 27.9634C88.3335 28.1534 89.3682 27.915 90.1931 28.0463C90.5486 28.1016 91.6011 28.257 92.0704 28.1292C92.0704 28.1016 92.0704 28.0739 92.0704 28.0463C92.9238 28.0463 93.7771 28.0463 94.6304 28.0463C94.6304 28.0186 94.6304 27.991 94.6304 27.9634C95.114 27.9634 95.5975 27.9634 96.0811 27.9634C96.0811 27.9357 96.0811 27.9081 96.0811 27.8804C96.394 27.8804 96.7069 27.8804 97.0198 27.8804C97.0198 27.8528 97.0198 27.8252 97.0198 27.7975C97.2473 27.7975 97.4749 27.7975 97.7024 27.7975C97.7024 27.7699 97.7024 27.7423 97.7024 27.7146C97.8731 27.7146 98.0438 27.7146 98.2144 27.7146C98.2144 27.687 98.2144 27.6593 98.2144 27.6317C98.3567 27.6317 98.4989 27.6317 98.6411 27.6317C98.6411 27.6041 98.6411 27.5764 98.6411 27.5488C98.7833 27.5488 98.9256 27.5488 99.0678 27.5488C99.0678 27.5211 99.0678 27.4935 99.0678 27.4659C99.1531 27.4659 99.2384 27.4659 99.3238 27.4659C99.3238 27.4382 99.3238 27.4106 99.3238 27.383C99.4376 27.383 99.5513 27.383 99.6651 27.383C99.6651 27.3553 99.6651 27.3277 99.6651 27.3C99.7504 27.3 99.8358 27.3 99.9211 27.3C99.9211 27.2724 99.9211 27.2448 99.9211 27.2171C100.035 27.2171 100.149 27.2171 100.262 27.2171C100.86 26.9407 101.457 26.6643 102.054 26.388C102.111 26.305 102.168 26.2221 102.225 26.1392C102.282 26.1392 102.339 26.1392 102.396 26.1392C102.424 26.0839 102.453 26.0287 102.481 25.9734C102.623 25.8628 102.766 25.7523 102.908 25.6417C102.908 25.5864 102.908 25.5312 102.908 25.4759C102.965 25.4483 103.022 25.4206 103.078 25.393C103.078 25.3377 103.078 25.2824 103.078 25.2271C103.135 25.1995 103.192 25.1719 103.249 25.1442C103.249 25.0613 103.249 24.9784 103.249 24.8955C103.278 24.8955 103.306 24.8955 103.334 24.8955C103.334 24.8402 103.334 24.7849 103.334 24.7296C103.363 24.7296 103.391 24.7296 103.42 24.7296C103.619 24.2771 103.669 22.94 103.505 22.408C103.505 22.2698 103.505 22.1316 103.505 21.9934ZM97.0198 24.0663C96.9629 24.094 96.906 24.1216 96.8491 24.1492C96.7353 24.2874 96.6215 24.4256 96.5078 24.5638C96.394 24.5915 96.2802 24.6191 96.1664 24.6467C96.1664 24.6744 96.1664 24.702 96.1664 24.7296C96.0811 24.7296 95.9958 24.7296 95.9104 24.7296C95.9104 24.7573 95.9104 24.7849 95.9104 24.8126C95.8535 24.8126 95.7966 24.8126 95.7398 24.8126C95.7398 24.8402 95.7398 24.8678 95.7398 24.8955C95.5975 24.8955 95.4553 24.8955 95.3131 24.8955C95.3131 24.9231 95.3131 24.9508 95.3131 24.9784C95.1709 24.9784 95.0286 24.9784 94.8864 24.9784C94.8864 25.006 94.8864 25.0337 94.8864 25.0613C94.6873 25.0613 94.4882 25.0613 94.2891 25.0613C93.034 25.165 94.7407 25.3722 88.0597 25.0613C87.8891 25.0613 87.7184 25.0613 87.5477 25.0613C87.5477 25.0337 87.5477 25.006 87.5477 24.9784C87.4055 24.9784 87.2633 24.9784 87.1211 24.9784C87.1211 24.9508 87.1211 24.9231 87.1211 24.8955C86.9789 24.8955 86.8366 24.8955 86.6944 24.8955C86.6944 24.8678 86.6944 24.8402 86.6944 24.8126C86.6375 24.8126 86.5806 24.8126 86.5237 24.8126C86.5237 24.7849 86.5237 24.7573 86.5237 24.7296C86.41 24.7296 86.2962 24.7296 86.1824 24.7296C86.154 24.6744 86.1255 24.6191 86.0971 24.5638C86.0402 24.5638 85.9833 24.5638 85.9264 24.5638C85.898 24.5085 85.8695 24.4533 85.8411 24.398C85.7842 24.398 85.7273 24.398 85.6704 24.398C85.6704 24.3703 85.6704 24.3427 85.6704 24.3151C85.5851 24.2598 85.4997 24.2045 85.4144 24.1492C85.3611 23.9143 85.2224 23.6932 85.1584 23.4859C85.1868 23.2095 85.2153 22.9331 85.2437 22.6568C85.3504 22.5669 85.3326 22.5082 85.4144 22.408C85.4428 22.408 85.4713 22.408 85.4997 22.408C85.4997 22.3527 85.4997 22.2974 85.4997 22.2422C85.7557 22.0763 86.0117 21.9105 86.2677 21.7447C86.3531 21.7447 86.4384 21.7447 86.5237 21.7447C86.5237 21.717 86.5237 21.6894 86.5237 21.6618C86.5806 21.6618 86.6375 21.6618 86.6944 21.6618C86.6944 21.6341 86.6944 21.6065 86.6944 21.5788C86.8366 21.5788 86.9789 21.5788 87.1211 21.5788C87.1211 21.5512 87.1211 21.5236 87.1211 21.4959C87.2917 21.4959 87.4624 21.4959 87.6331 21.4959C87.6331 21.4683 87.6331 21.4406 87.6331 21.413C87.8606 21.413 88.0882 21.413 88.3157 21.413C88.3157 21.3854 88.3157 21.3577 88.3157 21.3301C88.618 21.2472 88.9735 21.4061 89.1691 21.2472C90.7726 21.2541 92.7886 21.0468 94.1184 21.413C94.346 21.413 94.5735 21.413 94.8011 21.413C94.8011 21.4406 94.8011 21.4683 94.8011 21.4959C95.1709 21.5512 95.5407 21.6065 95.9104 21.6618C95.9104 21.6894 95.9104 21.717 95.9104 21.7447C95.9673 21.7447 96.0242 21.7447 96.0811 21.7447C96.0811 21.7723 96.0811 21.8 96.0811 21.8276C96.1664 21.8276 96.2518 21.8276 96.3371 21.8276C96.394 21.9105 96.4509 21.9934 96.5078 22.0763C96.5647 22.0763 96.6215 22.0763 96.6784 22.0763C96.8562 22.2007 96.9095 22.4529 97.1051 22.5738C97.1407 22.9193 97.194 23.289 97.1904 23.7347C97.0198 23.8798 97.1193 23.9281 97.0198 24.0663Z" fill="white"/>
<path d="M51.2813 14.0335C50.5204 14.0335 49.4111 13.9022 48.8066 14.1164C48.8066 15.0562 48.8066 15.9959 48.8066 16.9356C50.7764 17.1325 50.4493 16.984 58.5347 17.0185C58.5347 17.4884 58.5347 17.9582 58.5347 18.4281C57.8982 18.5386 56.9987 18.5144 56.4013 18.6768C56.0884 18.6768 55.7755 18.6768 55.4627 18.6768C55.4627 18.7045 55.4627 18.7321 55.4627 18.7597C55.2635 18.7597 55.0644 18.7597 54.8653 18.7597C54.8653 18.7874 54.8653 18.815 54.8653 18.8427C54.6662 18.8427 54.4671 18.8427 54.268 18.8427C52.3871 19.3954 50.6982 19.7685 49.8306 21.3301C49.8022 21.3301 49.7738 21.3301 49.7453 21.3301C49.7169 21.4407 49.6884 21.5512 49.66 21.6618C49.6315 21.6618 49.6031 21.6618 49.5746 21.6618C49.436 21.9693 49.1551 23.4479 49.3186 23.9834C49.3471 23.9834 49.3755 23.9834 49.404 23.9834C49.4324 24.2045 49.4609 24.4257 49.4893 24.6468C49.5178 24.6468 49.5462 24.6468 49.5746 24.6468C49.6315 24.8126 49.6884 24.9784 49.7453 25.1443C49.7738 25.1443 49.8022 25.1443 49.8306 25.1443C49.8306 25.1995 49.8306 25.2548 49.8306 25.3101C49.8875 25.3377 49.9444 25.3654 50.0013 25.393C50.0013 25.4483 50.0013 25.5036 50.0013 25.5588C50.1151 25.6418 50.2289 25.7247 50.3426 25.8076C50.4564 25.9458 50.5702 26.084 50.684 26.2222C50.7409 26.2222 50.7978 26.2222 50.8546 26.2222C50.9115 26.3051 50.9684 26.388 51.0253 26.4709C51.0822 26.4709 51.1391 26.4709 51.196 26.4709C51.2244 26.5262 51.2529 26.5815 51.2813 26.6367C51.4235 26.6644 51.5658 26.692 51.708 26.7197C51.7364 26.7749 51.7649 26.8302 51.7933 26.8855C51.8786 26.8855 51.964 26.8855 52.0493 26.8855C52.0493 26.9131 52.0493 26.9408 52.0493 26.9684C52.1062 26.9684 52.1631 26.9684 52.22 26.9684C52.22 26.996 52.22 27.0237 52.22 27.0513C52.3053 27.0513 52.3906 27.0513 52.476 27.0513C52.476 27.079 52.476 27.1066 52.476 27.1342C52.5613 27.1342 52.6466 27.1342 52.732 27.1342C52.732 27.1619 52.732 27.1895 52.732 27.2172C52.8173 27.2172 52.9026 27.2172 52.988 27.2172C52.988 27.2448 52.988 27.2724 52.988 27.3001C53.0733 27.3001 53.1587 27.3001 53.244 27.3001C53.244 27.3277 53.244 27.3554 53.244 27.383C53.3578 27.383 53.4715 27.383 53.5853 27.383C53.5853 27.4106 53.5853 27.4383 53.5853 27.4659C53.6991 27.4659 53.8129 27.4659 53.9267 27.4659C53.9267 27.4935 53.9267 27.5212 53.9267 27.5488C54.0404 27.5488 54.1542 27.5488 54.268 27.5488C54.268 27.5765 54.268 27.6041 54.268 27.6317C54.4387 27.6317 54.6093 27.6317 54.78 27.6317C54.78 27.6594 54.78 27.687 54.78 27.7147C54.9507 27.7147 55.1213 27.7147 55.292 27.7147C55.292 27.7423 55.292 27.7699 55.292 27.7976C55.5195 27.7976 55.7471 27.7976 55.9747 27.7976C55.9747 27.8252 55.9747 27.8528 55.9747 27.8805C56.2591 27.8805 56.5435 27.8805 56.828 27.8805C56.828 27.9081 56.828 27.9358 56.828 27.9634C57.3116 27.9634 57.7951 27.9634 58.2787 27.9634C58.2787 27.991 58.2787 28.0187 58.2787 28.0463C59.1604 28.0463 60.0422 28.0463 60.924 28.0463C60.924 28.074 60.924 28.1016 60.924 28.1292C62.0049 28.1016 63.0858 28.074 64.1667 28.0463C66.7765 28.0463 69.4147 27.7457 71.2494 26.9684C71.3347 26.9684 71.42 26.9684 71.5054 26.9684C71.5054 26.9408 71.5054 26.9131 71.5054 26.8855C71.676 26.8302 71.8467 26.7749 72.0174 26.7197C72.0174 26.692 72.0174 26.6644 72.0174 26.6367C72.1311 26.6091 72.2449 26.5815 72.3587 26.5538C72.3871 26.4986 72.4156 26.4433 72.444 26.388C72.5009 26.388 72.5578 26.388 72.6147 26.388C72.6716 26.3051 72.7285 26.2222 72.7854 26.1393C72.8423 26.1393 72.8991 26.1393 72.956 26.1393C72.9845 26.084 73.0129 26.0287 73.0414 25.9734C73.1836 25.8629 73.3258 25.7523 73.468 25.6418C73.468 25.5865 73.468 25.5312 73.468 25.4759C73.5249 25.4483 73.5818 25.4206 73.6387 25.393C73.6387 25.3377 73.6387 25.2825 73.6387 25.2272C73.6956 25.1995 73.7525 25.1719 73.8094 25.1443C73.8094 25.0613 73.8094 24.9784 73.8094 24.8955C73.8378 24.8955 73.8663 24.8955 73.8947 24.8955C73.9232 24.785 73.9516 24.6744 73.98 24.5638C74.0085 24.5638 74.0369 24.5638 74.0654 24.5638C74.0654 24.4257 74.0654 24.2875 74.0654 24.1493C74.4245 23.0023 74.0192 21.5927 73.468 20.8326C73.3543 20.7497 73.2405 20.6668 73.1267 20.5839C73.0698 20.501 73.0129 20.4181 72.956 20.3351C70.9934 18.9636 68.0671 18.663 64.9347 18.4281C64.9347 17.9582 64.9347 17.4884 64.9347 17.0185C66.4209 16.9494 66.9009 17.1602 74.6627 16.9356C74.6627 15.9682 74.6627 15.0009 74.6627 14.0335C68.0209 14.0335 60.0778 14.0335 51.2813 14.0335ZM59.7293 21.3301C60.3907 21.147 63.0751 21.1539 63.74 21.3301C64.0529 21.3301 64.3658 21.3301 64.6787 21.3301C64.6787 21.3578 64.6787 21.3854 64.6787 21.413C64.9062 21.413 65.1338 21.413 65.3614 21.413C65.3614 21.4407 65.3614 21.4683 65.3614 21.496C65.6458 21.5236 65.9302 21.5512 66.2147 21.5789C66.2147 21.6065 66.2147 21.6342 66.2147 21.6618C66.3 21.6618 66.3854 21.6618 66.4707 21.6618C66.4707 21.6894 66.4707 21.7171 66.4707 21.7447C66.6414 21.8 66.812 21.8553 66.9827 21.9105C66.9827 21.9382 66.9827 21.9658 66.9827 21.9935C67.0396 21.9935 67.0965 21.9935 67.1534 21.9935C67.2102 22.0764 67.2671 22.1593 67.324 22.2422C67.3809 22.2698 67.4378 22.2975 67.4947 22.3251C67.4947 22.3804 67.4947 22.4357 67.4947 22.491C67.5516 22.5186 67.6085 22.5462 67.6654 22.5739C67.6654 22.6568 67.6654 22.7397 67.6654 22.8226C67.6938 22.8226 67.7222 22.8226 67.7507 22.8226C67.8929 23.1716 67.772 23.3581 67.7507 23.7347C67.5836 23.8798 67.6796 23.9282 67.58 24.0664C67.5231 24.094 67.4662 24.1216 67.4094 24.1493C67.2956 24.2875 67.1818 24.4257 67.068 24.5638C66.9542 24.5915 66.8405 24.6191 66.7267 24.6468C66.7267 24.6744 66.7267 24.702 66.7267 24.7297C66.6414 24.7297 66.556 24.7297 66.4707 24.7297C66.4707 24.7573 66.4707 24.785 66.4707 24.8126C66.3854 24.8126 66.3 24.8126 66.2147 24.8126C66.2147 24.8402 66.2147 24.8679 66.2147 24.8955C66.1009 24.8955 65.9871 24.8955 65.8734 24.8955C65.8734 24.9231 65.8734 24.9508 65.8734 24.9784C65.7311 24.9784 65.5889 24.9784 65.4467 24.9784C65.4467 25.0061 65.4467 25.0337 65.4467 25.0613C65.2476 25.0613 65.0485 25.0613 64.8493 25.0613C64.1098 25.0959 64.6929 25.4863 58.108 24.9784C57.8235 24.9508 57.5391 24.9231 57.2547 24.8955C57.2547 24.8679 57.2547 24.8402 57.2547 24.8126C57.1693 24.8126 57.084 24.8126 56.9987 24.8126C56.9987 24.785 56.9987 24.7573 56.9987 24.7297C56.9418 24.7297 56.8849 24.7297 56.828 24.7297C56.828 24.702 56.828 24.6744 56.828 24.6468C56.7427 24.6468 56.6573 24.6468 56.572 24.6468C56.5151 24.5638 56.4582 24.4809 56.4013 24.398C56.3444 24.398 56.2875 24.398 56.2307 24.398C56.2307 24.3704 56.2307 24.3427 56.2307 24.3151C56.1453 24.2598 56.06 24.2045 55.9747 24.1493C55.9747 24.094 55.9747 24.0387 55.9747 23.9834C55.9462 23.9834 55.9178 23.9834 55.8893 23.9834C55.8004 23.8245 55.6191 23.2061 55.7187 22.9055C55.7471 22.9055 55.7755 22.9055 55.804 22.9055C55.804 22.8226 55.804 22.7397 55.804 22.6568C55.8324 22.6568 55.8609 22.6568 55.8893 22.6568C55.8893 22.6015 55.8893 22.5462 55.8893 22.491C55.9178 22.491 55.9462 22.491 55.9747 22.491C56.0742 22.3631 56.092 22.3458 56.1453 22.1593C56.3373 22.1075 56.3587 22.0902 56.4867 21.9935C56.4867 21.9658 56.4867 21.9382 56.4867 21.9105C56.6004 21.8829 56.7142 21.8553 56.828 21.8276C56.828 21.8 56.828 21.7723 56.828 21.7447C56.9133 21.7447 56.9987 21.7447 57.084 21.7447C57.084 21.7171 57.084 21.6894 57.084 21.6618C57.1693 21.6618 57.2547 21.6618 57.34 21.6618C57.34 21.6342 57.34 21.6065 57.34 21.5789C57.4822 21.5789 57.6244 21.5789 57.7667 21.5789C57.7667 21.5512 57.7667 21.5236 57.7667 21.496C57.9089 21.496 58.0511 21.496 58.1933 21.496C58.3462 21.451 58.7764 21.3474 58.9613 21.3301C59.2173 21.3301 59.4733 21.3301 59.7293 21.3301Z" fill="white"/>
</svg>
