<svg width="35" height="24" viewBox="0 0 35 24" fill="none" xmlns="http://www.w3.org/2000/svg">
<path fill-rule="evenodd" clip-rule="evenodd" d="M35 11.0678C33.7659 11.2765 31.9805 11.0596 31.0384 10.6668C33.0048 10.5032 34.3336 9.61529 34.8478 8.40826C34.1402 8.84197 31.9352 9.31251 30.7217 8.86243C30.66 8.57602 30.5941 8.30597 30.5283 8.06457C29.6027 4.67671 26.431 1.9517 23.1112 2.28312C23.3786 2.17674 23.6501 2.07445 23.9257 1.98443C24.2918 1.8535 26.4351 1.50571 26.0978 0.752856C25.8098 0.0900155 23.1894 1.25203 22.6957 1.40751C23.3457 1.16202 24.4276 0.744673 24.5387 0C23.539 0.135023 22.5599 0.605559 21.803 1.28886C22.0786 0.998353 22.2843 0.638291 22.3296 0.25368C19.668 1.94761 18.1088 5.36001 16.85 8.67422C15.8627 7.72087 14.9824 6.96801 14.1966 6.55067C11.9917 5.37638 9.35472 4.1448 5.21626 2.61454C5.08874 3.97705 5.89505 5.79372 8.20699 6.99665C7.70922 6.9271 6.78773 7.07849 6.05548 7.25034C6.35578 8.81333 7.33075 10.1022 9.97591 10.72C8.77057 10.7978 8.14117 11.076 7.57758 11.6652C8.12883 12.7536 9.47402 14.0301 11.8888 13.7683C9.20251 14.9221 10.7904 17.0579 12.979 16.7388C9.25188 20.5726 3.3733 20.2903 0 17.0825C8.81171 29.0382 27.9655 24.1528 30.8204 12.639C32.9678 12.6554 34.2225 11.8984 35 11.0678Z" fill="white" fill-opacity="0.7"/>
</svg>
